<?xml version="1.0" encoding="UTF-8"?>
<svg data-bbox="57.44 58.036 2096.552 1103.434" viewBox="0 0 2211 1279" xmlns:xlink="http://www.w3.org/1999/xlink" xmlns="http://www.w3.org/2000/svg" data-type="ugc">
    <g>
        <defs>
            <linearGradient gradientUnits="userSpaceOnUse" y2="292.29" x2="441.05" y1="292.29" x1="57.99" id="f034fe23-a755-4982-9484-8ea9e70095b1">
                <stop stop-color="#8d6c49" offset="0"/>
                <stop stop-color="#ebc181" offset="1"/>
            </linearGradient>
            <linearGradient xlink:href="#f034fe23-a755-4982-9484-8ea9e70095b1" y2="288.42" x2="2153.76" y1="288.42" x1="1702.21" id="cd6d11ac-0fea-42cf-a0ee-940c28ac4133"/>
            <linearGradient xlink:href="#f034fe23-a755-4982-9484-8ea9e70095b1" y2="285.69" x2="1616.08" y1="285.69" x1="1288" id="bc65a391-7fba-404f-b022-a1a15ee510bb"/>
            <linearGradient xlink:href="#f034fe23-a755-4982-9484-8ea9e70095b1" y2="293.44" x2="849.25" y1="293.44" x1="500.93" id="c9553a83-c089-43ce-b35f-357c06947f43"/>
            <linearGradient xlink:href="#f034fe23-a755-4982-9484-8ea9e70095b1" y2="287.79" x2="1212" y1="287.79" x1="894.82" id="385614ee-edd1-49d7-8738-e20ea2d39cf6"/>
        </defs>
        <path d="M174.92 354.56c45.34 48.35 90.46 86.29 123.22 136.2 5.16 7.86 9.06 14.85 11.18 22.59h131.6c.03-1.84.06-3.68.11-5.52.34-15.59-6.51-22.13-16.6-33.31-40.02-44.35-79.11-89.62-114.65-140.83 7.62-1.68 12.6-2.81 17.59-3.87 70.43-15.01 100.88-88.82 93.09-146.29-10.57-77.93-50.55-111.7-127.99-111.55-65.75.13-131.54 1.12-197.24-.7-27.99-.78-37.46 7.51-37.24 36.55 1 135.17.55 270.35.4 405.53h116.08c-.07-51.29.45-103.63.45-158.79Zm4.97-231.86c.34-22.37 14.66-29.48 38.47-29.48 40.3 0 51.23 13.74 62.87 41.65 15.67 37.59 26 78.47 8.35 116.29-21.75 46.61-47.43 54.4-97.41 55.54-12.27.28-10.69-7.92-10.88-15.86-1.39-55.73-2.23-112.05-1.39-168.13Z" fill="url(#f034fe23-a755-4982-9484-8ea9e70095b1)"/>
        <path d="m1822.03 285.49.23-47.07h.01c62.61 89.15 130.81 185.83 193.57 274.94h137.92c-.42-126.53-1.93-255.88-1.93-379.6 0-32.32 4.97-61.76-35.01-60.81-17.02.4-38.7 0-62.65 0-15.54 0-30.87 7.19-30.84 26.44.11 73.37 3.57 147.13 3.2 220.48-.05 10.34 1.67 25.08-9.73 29.19-11.5 4.14-17.08-10.49-23.28-18.86-39.88-53.84-79.58-107.81-119.2-161.84-12.77-17.42-24-35.89-36.03-53.81-16.64-24.8-24.59-54.04-56.83-50.81-18.43 1.84-38.7 3.69-58.97 7.37-7.52 1.37-15.39 5.42-20.27 11.78v430.46h119.38c.04-75.95.06-151.91.44-227.86Z" fill="url(#cd6d11ac-0fea-42cf-a0ee-940c28ac4133)"/>
        <path d="M1407.8 342.96c0-9.7 7.86-17.56 17.56-17.56h51.5c9.7 0 17.56 7.86 17.56 17.56v170.4h121.65V173.44c-2.79-10.65-7.17-21.04-14.06-31.08-37.96-55.29-86.41-86.55-156.57-84.2-50.61 1.7-98.37 29.66-129.13 69.13-14.42 18.51-23.1 38.75-28.32 59.99v326.07h119.8v-170.4Zm0-212.13c0-8.56 6.94-15.5 15.5-15.5h55.62c8.56 0 15.5 6.94 15.5 15.5v145.9c0 8.56-6.94 15.5-15.5 15.5h-55.62c-8.56 0-15.5-6.94-15.5-15.5v-145.9Z" fill="url(#bc65a391-7fba-404f-b022-a1a15ee510bb)"/>
        <path d="M844.3 510.66c4.71-5.18 6.38-12.73 3.6-19.2-4.46-10.38-16.68-11.33-27.01-11.31-54.46.08-108.91.17-163.37.25-6.28 0-13.53-.46-17.24-5.62-2.52-3.49-2.61-8.16-2.61-12.5.04-43.71.09-87.42.13-131.13 0-4.26.12-8.87 2.66-12.25 3.6-4.79 10.41-5.16 16.32-5.11 46.52.4 93.04.8 139.56 1.19 11.9.1 24.5.04 33.91-8.78 4.94-4.63 7.37-11.66 5.44-18.22-3.59-12.18-18.4-13.99-30.36-13.97l-149.91.3c-4.4 0-9.16-.1-12.63-2.86-4.76-3.78-5.17-10.85-5.16-17.01.04-44.78.09-89.56.13-134.34 0-5.01.17-10.49 3.36-14.31 3.97-4.75 10.93-5.04 17.05-4.95 45.24.62 90.49 1.25 135.73 1.87 10.43.14 21.52.13 29.66-7.77 4.08-3.96 6.09-9.84 4.46-15.34-3.06-10.33-15.04-11.61-24.84-11.6-93.21.08-186.42.17-279.62.25-6.79 0-14.54.46-18.8 5.85-3.24 4.1-3.39 9.82-3.39 15.08l-.42 429.68h330.66c4.67-1.58 9-4.13 12.71-8.21Z" fill="url(#c9553a83-c089-43ce-b35f-357c06947f43)"/>
        <path d="M1195.46 439.21c13.2-22.59 18.95-50.57 15.62-76.21-.31-2.41-.7-4.8-1.18-7.18-5.3-26.67-20.96-51.31-43.23-66.99-19.18-13.51-40.79-23.5-61.02-35.3-22.11-12.9-43.87-25.67-60.81-42.38-6.98-6.88-13.04-14.96-15.7-24.53-2.49-8.98-2.25-19.92.26-28.87 1.51-5.4 4.91-10.19 9.12-13.84 5.47-4.74 12.25-7.72 19.15-9.93 29.42-9.4 61.34-5.53 91.64.46 7.64 1.51 15.26 3.15 22.87 4.84 3.8.84 7.59 1.76 11.41 2.56 3.16.66 6.24-.45 9.22-1.54 6.55-2.4 12.05-7.11 15.52-13.15 3.45-6.01 5.01-13.84 2.24-20.41-2.85-6.75-9.43-10.96-15.73-14.1-11.44-5.71-23.44-10.21-35.54-14.31-.84-.29-1.69-.57-2.53-.85-23.38-7.67-47.67-12.54-72.19-14.53-24.52-1.99-49.28-1.11-73.58 2.73-15.47 2.44-31.44 6.95-45.68 13.57-21.37 9.92-38.94 26.49-52.29 45.73a154.08 154.08 0 0 0-7.99 12.82c-3.5 6.29-6.32 13.12-8.05 20.12-3.06 12.39-2.64 25.45-.29 37.99 4.47 23.9 15.7 46.3 29.4 66.21 6.54 9.51 13.82 18.51 21.74 26.91 14.94 15.85 32.14 29.56 50.95 40.53 12.59 7.35 25.67 13.65 37.64 22.07 12.52 8.81 23.81 20.44 28.41 35.04 3.32 10.53 2.92 22.09-.48 32.6-6.84 21.17-25.94 34.67-46.49 41.2-1.96.62-3.95 1.16-5.95 1.59-11.76 2.54-23.89.59-35.01-3.68-4.36-1.67-8.59-3.68-12.69-5.91-14.64-7.93-27.82-18.37-42.81-25.66-5.24-2.55-10.74-4.78-16.42-6.15-4.67-1.12-8.27 2.08-9.44 6.44-.53 1.97-.66 4.05-.59 6.08.24 6.49 1.82 12.86 3.81 19.05 3.19 9.89 7.8 20 15.99 26.75 8.89 7.33 18.58 13.45 29.08 18.21 8.25 3.75 16.84 6.72 25.58 9.08 7.92 2.13 15.98 3.73 24.1 4.86 26.43 3.68 53.22 2.68 79.78 1.13 3.03-.18 6.32-.04 9.26-.77 2.76-.69 5.57-1.26 8.39-1.82 9.59-1.92 18.83-4.14 27.97-7.56 10.71-4.01 21.02-9.1 30.66-15.26 6.84-4.37 13.35-9.29 19.39-14.71 5.31-4.77 10.06-10.13 14.47-15.74 2.21-2.8 4.33-5.67 6.42-8.57 1.99-2.77 3.85-5.64 5.59-8.61Z" fill="url(#385614ee-edd1-49d7-8738-e20ea2d39cf6)"/>
        <path fill="#003749" d="M269.82 541.89c0 15.762-12.778 28.54-28.54 28.54-15.762 0-28.54-12.778-28.54-28.54 0-15.762 12.778-28.54 28.54-28.54 15.762 0 28.54 12.778 28.54 28.54z"/>
        <path d="M441.78 513.35H311.34c.15 1.78.21 3.62.18 5.53-.65 36.79-1 73.62.15 110.39.5 15.94-4.7 19.11-20.12 19.64-19.88.68-55.63.68-75.12.68-42.53 0-40.26-11.75-41.27-54.52-.64-27.14-.91-54.3-.99-81.73H57.49c-.02 17.82-.03 35.64-.03 53.45 0 58.28 59.44 119.96 118.05 120.63 81.24.93 162.52-.41 243.76.71 19.3.27 22.93-6.33 22.61-23.85-.92-50.3-1-100.64-.1-150.94Z" fill="#003749"/>
        <path d="M2153.46 554.04c0-13.52-.04-27.09-.08-40.69h-137.77c3.68 7.97 1.49 16.42 1.53 24.56.3 60.71-.18 121.43.17 182.14.29 52.03-14.93 68.66-68.68 71.17-19.39.91-37.52-6.32-55.23-13.14-11.73-4.52-23.34-11.06-33.56 1.33-12.2 14.78 1.7 25.32 9.78 33.65 61.63 63.44 200.13 58.61 257.62-9.4 16.78-19.84 26.92-42.57 26.75-70.73 0-59.63-.5-119.26-.54-178.88Z" fill="#003749"/>
        <path fill="#003749" d="M1805.32 792.28c0 15.762-12.778 28.54-28.54 28.54-15.762 0-28.54-12.778-28.54-28.54 0-15.762 12.778-28.54 28.54-28.54 15.762 0 28.54 12.778 28.54 28.54z"/>
        <path fill="#003749" d="M1734.236 781.356c6.032 14.562-.883 31.258-15.445 37.29-14.563 6.031-31.258-.884-37.29-15.446-6.032-14.563.884-31.258 15.446-37.29s31.257.884 37.29 15.446z"/>
        <path d="M1702.21 639.39c0 9.7-7.87 17.57-17.57 17.57h-51.39c-9.7 0-17.57-7.87-17.57-17.57V513.35h-121.51v126.06c0 9.69-7.85 17.54-17.54 17.54h-51.44c-9.69 0-17.54-7.85-17.54-17.54V513.35h-119.67v140.83c0 4.58-3.72 8.3-8.3 8.3h-36.63c-6.35.29-12.72.27-19.08 0h-13.48c-8.04 0-14.57-6.52-14.57-14.57V438.85c-19.7 35.05-57.55 61.49-103.37 70.81a182.05 182.05 0 0 1-27.35 3.43v72.05h.92c-.05 19.91-.1 39.82-.14 59.73-.01 4.06-.12 8.44-2.57 11.68-3.51 4.65-10.22 5.06-16.04 5.07-131.46 0-262.92.02-394.37.03-4.19 0-8.78-.14-11.97-2.86-3.9-3.32-4.21-9.13-4.23-14.25-.11-40.07-.22-80.15-.32-120.22v-5.44h-27.6c-22.52 0-40.78-18.26-40.78-40.78V67.8h-49.85c-10.09 0-18.28 8.18-18.28 18.28v427.28h-.32c-.05 52.66-.1 105.32-.16 157.98 0 7.95.27 16.69 5.59 22.61 6.09 6.77 16.36 7.26 25.46 7.25l352.76-.33c143.52-.13 287.03-.23 430.55-.22 144.26 0 288.52.04 432.78.04 56.06 0 74.58-18.58 74.72-76.19.09-37.04.12-74.09.14-111.13h-119.27v126.04Z" fill="#003749"/>
        <path d="M117.7 809.49c1.62 0 3.13-.3 4.55-.91 1.41-.61 2.67-1.43 3.76-2.48 1.09-1.05 1.94-2.28 2.55-3.7.61-1.41.91-2.93.91-4.55s-.3-3.13-.91-4.55c-.61-1.41-1.45-2.67-2.55-3.76s-2.34-1.94-3.76-2.55c-1.41-.61-2.93-.91-4.55-.91s-3.13.3-4.55.91c-1.41.61-2.65 1.45-3.7 2.55a12.238 12.238 0 0 0-2.48 3.76c-.61 1.42-.91 2.93-.91 4.55 0 3.23 1.13 5.98 3.39 8.24 2.26 2.26 5.01 3.39 8.24 3.39Z" fill="#ecc383"/>
        <path d="M76.24 981.31c5.66 4.49 12.1 7.84 19.33 10.06 7.23 2.22 14.61 3.33 22.12 3.33s14.89-1.11 22.12-3.33c7.23-2.22 13.68-5.58 19.33-10.06 5.66-4.49 10.22-10.08 13.7-16.79 3.47-6.71 5.21-14.55 5.21-23.52V831.66h-23.03V941c0 5.09-1.07 9.55-3.21 13.39a29.892 29.892 0 0 1-8.49 9.64c-3.52 2.58-7.5 4.52-11.94 5.82-4.45 1.29-9.01 1.94-13.7 1.94s-9.25-.65-13.7-1.94c-4.45-1.29-8.41-3.23-11.88-5.82-3.48-2.59-6.28-5.8-8.42-9.64-2.14-3.84-3.21-8.3-3.21-13.39v-87.88H57.44V941c0 8.97 1.72 16.81 5.15 23.52 3.43 6.71 7.98 12.3 13.64 16.79Z" fill="#ecc383"/>
        <path d="M241.83 949.13h208.61c5.17 0 10.05-.99 14.62-2.97 4.58-1.98 8.57-4.67 11.99-8.06s6.11-7.37 8.1-11.94c1.99-4.56 2.99-9.47 2.99-14.73v-79.76h-23.03v79.76c0 2.1-.38 4.04-1.15 5.82-.77 1.78-1.82 3.33-3.15 4.67s-2.89 2.39-4.67 3.15c-1.78.77-3.68 1.15-5.7 1.15h-37.82v-94.55h-23.03v94.55h-29.58v-94.55h-23.03v94.55h-29.33v-94.55h-23.03v94.55h-43.4c-2.02 0-3.92-.38-5.7-1.15-1.78-.77-3.33-1.82-4.67-3.15s-2.38-2.89-3.15-4.67c-.77-1.78-1.15-3.68-1.15-5.7V786.09h-23.03v125.46c0 5.17.99 10.04 2.97 14.61 1.98 4.57 4.69 8.55 8.12 11.94 3.43 3.39 7.43 6.08 12 8.06 4.56 1.98 9.43 2.97 14.61 2.97h.61Z" fill="#ecc383"/>
        <path d="M446.62 972.34c-1.41-.61-2.93-.91-4.55-.91s-3.13.3-4.55.91c-1.41.61-2.67 1.45-3.76 2.55s-1.94 2.34-2.55 3.76c-.61 1.41-.91 2.93-.91 4.55s.3 3.13.91 4.55c.61 1.41 1.45 2.64 2.55 3.7 1.09 1.05 2.34 1.88 3.76 2.48 1.41.61 2.93.91 4.55.91s3.13-.3 4.55-.91c1.41-.61 2.67-1.44 3.76-2.48 1.09-1.05 1.94-2.28 2.55-3.7.61-1.42.91-2.93.91-4.55s-.3-3.13-.91-4.55c-.61-1.42-1.45-2.67-2.55-3.76s-2.34-1.94-3.76-2.55Z" fill="#ecc383"/>
        <path d="M481.01 972.34c-1.42-.61-2.94-.91-4.57-.91s-3.15.3-4.57.91c-1.42.61-2.68 1.45-3.78 2.55s-1.95 2.34-2.56 3.76c-.61 1.41-.91 2.93-.91 4.55s.3 3.13.91 4.55a11.32 11.32 0 0 0 2.56 3.7 12.45 12.45 0 0 0 3.78 2.48c1.42.61 2.94.91 4.57.91 3.25 0 6.01-1.13 8.28-3.39 2.28-2.26 3.41-5.01 3.41-8.24 0-1.62-.3-3.13-.91-4.55-.61-1.42-1.44-2.67-2.5-3.76a11.318 11.318 0 0 0-3.72-2.55Z" fill="#ecc383"/>
        <path d="M538.5 978.16c3.27-3.27 5.98-6.59 8.12-9.94 2.14-3.36 3.9-6.57 5.27-9.64 3.15-7.27 4.77-14.67 4.85-22.18V831.67h-23.03v105.7c-.08 4.61-1.21 9.13-3.39 13.58-.97 1.94-2.18 3.94-3.64 6s-3.31 4.14-5.58 6.24c-2.26 2.1-4.91 4.14-7.94 6.12-3.03 1.98-6.61 3.82-10.73 5.52l8.85 21.21c5.98-2.51 11.19-5.29 15.64-8.36 4.44-3.07 8.3-6.24 11.58-9.52Z" fill="#ecc383"/>
        <path d="M724.81 806.1c1.09 1.05 2.34 1.88 3.76 2.48 1.41.61 2.93.91 4.55.91 3.23 0 5.98-1.13 8.24-3.39 2.26-2.26 3.39-5.01 3.39-8.24 0-1.61-.3-3.13-.91-4.55-.61-1.41-1.44-2.67-2.48-3.76a11.235 11.235 0 0 0-3.7-2.55c-1.41-.61-2.93-.91-4.55-.91s-3.13.3-4.55.91c-1.41.61-2.67 1.45-3.76 2.55s-1.94 2.34-2.55 3.76c-.61 1.42-.91 2.93-.91 4.55s.3 3.13.91 4.55c.61 1.42 1.45 2.65 2.55 3.7Z" fill="#ecc383"/>
        <path d="M690.51 806.1c1.09 1.05 2.34 1.88 3.76 2.48 1.41.61 2.93.91 4.55.91s3.13-.3 4.55-.91c1.41-.61 2.67-1.43 3.76-2.48 1.09-1.05 1.94-2.28 2.55-3.7.61-1.41.91-2.93.91-4.55s-.3-3.13-.91-4.55c-.61-1.41-1.45-2.67-2.55-3.76s-2.34-1.94-3.76-2.55c-1.41-.61-2.93-.91-4.55-.91s-3.13.3-4.55.91c-1.41.61-2.67 1.45-3.76 2.55s-1.94 2.34-2.55 3.76c-.61 1.42-.91 2.93-.91 4.55s.3 3.13.91 4.55c.61 1.42 1.45 2.65 2.55 3.7Z" fill="#ecc383"/>
        <path d="M637.66 978.65c4.89 4.89 10.65 8.77 17.27 11.64 6.63 2.87 13.7 4.3 21.21 4.3h40.24c7.27 0 14.12-1.39 20.55-4.18 6.42-2.79 12.02-6.56 16.79-11.33 4.77-4.77 8.55-10.38 11.33-16.84 2.79-6.46 4.18-13.32 4.18-20.59v-56.2c0-7.27-1.39-14.13-4.18-20.59-2.79-6.46-6.59-12.15-11.39-17.08-4.81-4.93-10.45-8.82-16.91-11.69-6.47-2.87-13.33-4.3-20.61-4.3s-14.24 1.43-20.67 4.3c-6.42 2.87-12.04 6.74-16.85 11.62-4.81 4.88-8.59 10.61-11.33 17.2-2.75 6.58-4.12 13.62-4.12 21.13v25.79c0 5.17.97 10.01 2.91 14.53s4.61 8.48 8 11.87c3.39 3.39 7.35 6.06 11.88 7.99 4.52 1.94 9.37 2.91 14.55 2.91h44.85c-.81 3.23-2.12 6.22-3.94 8.97-1.82 2.75-4 5.13-6.55 7.15a29.83 29.83 0 0 1-8.55 4.73c-3.15 1.13-6.47 1.7-9.94 1.7h-40.24c-4.36 0-8.45-.83-12.24-2.48-3.8-1.66-7.13-3.9-10-6.73-2.87-2.83-5.11-6.14-6.73-9.94s-2.42-7.88-2.42-12.24v-87.03h-23.03v87.03c0 7.52 1.43 14.57 4.3 21.15 2.87 6.58 6.75 12.32 11.64 17.21Zm62.85-52.43c-1.94 0-3.78-.38-5.52-1.15-1.74-.77-3.25-1.8-4.55-3.09-1.29-1.29-2.32-2.81-3.09-4.55-.77-1.74-1.15-3.61-1.15-5.64v-25.82c0-4.36.77-8.44 2.3-12.24 1.53-3.8 3.66-7.11 6.36-9.94 2.71-2.83 5.88-5.05 9.52-6.67 3.64-1.61 7.56-2.42 11.76-2.42s8.02.83 11.7 2.48c3.68 1.66 6.89 3.88 9.64 6.67 2.75 2.79 4.91 6.04 6.49 9.76 1.58 3.72 2.36 7.64 2.36 11.76v40.85h-45.82Z" fill="#ecc383"/>
        <path d="M926.52 806.1c1.09 1.05 2.34 1.88 3.76 2.48 1.41.61 2.93.91 4.55.91 3.23 0 5.98-1.13 8.24-3.39 2.26-2.26 3.39-5.01 3.39-8.24 0-1.61-.3-3.13-.91-4.55-.61-1.41-1.44-2.67-2.48-3.76a11.235 11.235 0 0 0-3.7-2.55c-1.41-.61-2.93-.91-4.55-.91s-3.13.3-4.55.91c-1.41.61-2.67 1.45-3.76 2.55s-1.94 2.34-2.55 3.76c-.61 1.42-.91 2.93-.91 4.55s.3 3.13.91 4.55c.61 1.42 1.45 2.65 2.55 3.7Z" fill="#ecc383"/>
        <path d="M1094.28 926.79c1.98-4.64 2.97-9.83 2.97-15.56V883.5c.08-7.18-1.26-13.93-4.01-20.22-2.75-6.3-6.51-11.79-11.29-16.47-4.77-4.68-10.36-8.37-16.75-11.08-6.39-2.71-13.23-4.06-20.51-4.06s-14 1.33-20.39 4c-6.39 2.66-11.95 6.36-16.69 11.07-4.73 4.72-8.48 10.27-11.22 16.65-2.75 6.37-4.13 13.31-4.13 20.82v42.01h-36.73v-94.55H932.5v94.55h-52.37v-39.95c0-8.8-1.48-16.58-4.45-23.36s-7.61-12.49-13.94-17.13c-6.33-4.64-14.46-8.15-24.4-10.53-9.94-2.38-21.94-3.57-36-3.57v22.91c9.94 0 18.42.69 25.46 2.06 7.03 1.37 12.79 3.42 17.27 6.12 4.49 2.71 7.78 6.02 9.88 9.94 2.1 3.92 3.15 8.42 3.15 13.52v40h-62.31v22.91h264.69c5.18 0 10.07-.91 14.69-2.72 4.61-1.82 8.62-4.38 12.01-7.69 3.4-3.31 6.09-7.29 8.07-11.93Zm-20.06-15.6c0 2.26-.38 4.33-1.15 6.18-.77 1.86-1.82 3.44-3.14 4.73-1.33 1.29-2.9 2.3-4.72 3.03-1.82.73-3.73 1.09-5.75 1.09h-44.15v-42.06c0-4.2.77-8.1 2.3-11.7 1.53-3.6 3.63-6.73 6.29-9.39s5.79-4.75 9.38-6.24c3.59-1.49 7.4-2.24 11.43-2.24s7.96.75 11.55 2.24c3.59 1.5 6.74 3.54 9.44 6.12 2.7 2.59 4.82 5.64 6.35 9.15 1.53 3.52 2.26 7.3 2.18 11.33v27.76Z" fill="#ecc383"/>
        <path d="M1036.34 806.1c1.09 1.05 2.34 1.88 3.76 2.48 1.41.61 2.93.91 4.55.91 3.23 0 5.98-1.13 8.24-3.39 2.26-2.26 3.39-5.01 3.39-8.24 0-1.61-.3-3.13-.91-4.55-.61-1.41-1.44-2.67-2.48-3.76a11.235 11.235 0 0 0-3.7-2.55c-1.41-.61-2.93-.91-4.55-.91s-3.13.3-4.55.91c-1.41.61-2.67 1.45-3.76 2.55s-1.94 2.34-2.55 3.76c-.61 1.42-.91 2.93-.91 4.55s.3 3.13.91 4.55c.61 1.42 1.45 2.65 2.55 3.7Z" fill="#ecc383"/>
        <path d="M140.82 1140.04c-.67-7.82-1.11-12.47-1.32-13.98-.52-4.92-1.81-8.9-3.88-11.96-2.75-4.19-6.76-6.81-12.04-7.84 4.25-1.45 7.79-3.55 10.64-6.3 5.39-5.24 8.08-12.13 8.08-20.68 0-11.14-4.43-19.46-13.29-24.96-5.13-3.21-12.3-4.82-21.52-4.82H57.46v109.47h14.45v-47.39h28.82c8.29 0 14.14 1.11 17.56 3.34 4.92 3.21 7.69 10.72 8.31 22.53.47 9.58.96 15.28 1.48 17.09.57 2.02 1.19 3.5 1.86 4.43h16.55l-1.4-1.55c-2.02-2.23-3.44-8.02-4.27-17.39Zm-26.96-41.19c-3.47.73-8.37 1.09-14.68 1.09H71.91v-37.84h31.08c3.73 0 6.99.23 9.79.7 4.14.62 7.43 2.1 9.87 4.44 3.42 3.27 5.13 7.73 5.13 13.39 0 4.83-1.11 8.75-3.34 11.76-2.49 3.37-6.01 5.53-10.57 6.46Z" fill="#003749"/>
        <path fill="#003749" d="M182.23 1108.56h57.34v-11.65h-57.34v-34.81h61.38v-12.58h-75.83v109.46h76.6v-12.58h-62.15v-37.84z"/>
        <path d="M320.44 1100.4c-3.47-1.19-9.32-2.67-17.56-4.43-12.07-2.59-20.04-5.02-23.93-7.3-3.88-2.23-5.83-5.96-5.83-11.19 0-6.42 2.72-11.27 8.16-14.53 4.09-2.43 9.58-3.65 16.47-3.65 9.53 0 16.6 2.36 21.21 7.07 3.31 3.42 5.39 8.49 6.22 15.23h13.91c-.26-7.35-1.92-13.47-4.97-18.34-6.84-10.82-18.91-16.24-36.2-16.24-11.65 0-20.87 2.67-27.66 8-7.36 5.8-11.03 13.6-11.03 23.39 0 6.53 1.73 11.94 5.21 16.24 3.11 3.78 7.95 6.79 14.53 9.01 2.02.67 8.11 2.2 18.26 4.58 6.78 1.61 11.11 2.67 12.97 3.19 6.68 1.97 11.5 4.35 14.45 7.15 2.8 2.64 4.2 6.22 4.2 10.72 0 5.8-2.28 10.57-6.84 14.3-4.51 3.73-11.24 5.59-20.2 5.59-12.17 0-21.11-3.26-26.8-9.79-3.52-3.99-5.36-9.5-5.52-16.55h-13.98c.16 15.13 6.01 25.87 17.56 32.24 7.67 4.25 16.91 6.37 27.74 6.37 13.1 0 23.2-2.77 30.3-8.31 8.18-6.32 12.28-14.63 12.28-24.94 0-6.11-1.76-11.47-5.28-16.08-3.94-5.13-9.82-9.04-17.64-11.73Z" fill="#003749"/>
        <path d="m394.17 1049.05-42.96 109.93h15.23l12.51-33.64h45.99l12.2 33.64h16.08l-42.81-109.93h-16.24Zm-11.03 64.64 11.03-29.72c3.52-9.34 6.16-16.52 7.92-21.55 1.5 4.82 4.09 12.22 7.77 22.18l10.8 29.1h-37.53Z" fill="#003749"/>
        <path d="M540.93 1104.29c0 10.46.34 22.95 1.01 37.45-3.88-7.35-9.97-17.33-18.26-29.91l-40.87-62.31h-15.69v109.47h13.83v-55.32l-.08-10.18c-.16-12.02-.47-20.74-.93-26.18 3.31 6.84 9.92 17.74 19.81 32.71l39 58.97h15.93v-109.47h-13.75v54.77Z" fill="#003749"/>
        <path fill="#003749" d="M677.67 1095.12h-57.8v-45.6h-14.45v109.46h14.45v-51.27h57.8v51.27h14.45v-109.46h-14.45v45.6z"/>
        <path d="M765.54 1047.03c-15.85 0-28.82 5.26-38.92 15.77-9.58 10.05-14.37 23.9-14.37 41.57 0 14.97 3.7 27.43 11.11 37.37 9.79 13.16 23.51 19.73 41.18 19.73s31.44-6.53 41.18-19.58c7.51-10.05 11.27-22.66 11.27-37.84 0-17.04-4.82-30.79-14.45-41.25-9.69-10.51-22.01-15.77-36.98-15.77Zm24.71 91.99c-6.63 6.79-15.1 10.18-25.41 10.18-5.18 0-10.1-.98-14.76-2.95-5.75-2.43-10.49-6.06-14.22-10.88-6.06-7.77-9.09-18.23-9.09-31.39 0-14.04 3.6-25.04 10.8-33.02 7.04-7.77 16.24-11.65 27.58-11.65s19.91 4.07 26.8 12.2c6.99 8.24 10.49 19.14 10.49 32.71 0 14.92-4.07 26.52-12.2 34.81Z" fill="#003749"/>
        <path fill="#003749" d="M826.92 1062.1h36.75v96.88h14.45v-96.88h36.83v-12.58h-88.03v12.58z"/>
        <path fill="#003749" d="M944.7 1108.56h57.34v-11.65H944.7v-34.81h61.38v-12.58h-75.83v109.46h76.61v-12.58H944.7v-37.84z"/>
        <path fill="#003749" d="M1040.89 1146.4v-96.88h-14.45v109.46H1099v-12.58h-58.11z"/>
    </g>
</svg>
