<?xml version="1.0" encoding="UTF-8"?>
<svg data-bbox="30 2.02 140 196.33" viewBox="0 0 200 200" xmlns:xlink="http://www.w3.org/1999/xlink" xmlns="http://www.w3.org/2000/svg" data-type="ugc">
    <g>
        <defs>
            <linearGradient gradientUnits="userSpaceOnUse" y2="44.69" x2="99.48" y1="44.69" x1="43.41" id="53434817-2b10-40cd-a7f5-cda4285241a9">
                <stop stop-color="#8d6c49" offset="0"/>
                <stop stop-color="#ebc181" offset="1"/>
            </linearGradient>
            <linearGradient xlink:href="#53434817-2b10-40cd-a7f5-cda4285241a9" y2="72.02" x2="156.59" y1="72.02" x1="43.91" id="c3e210b4-53ad-434f-aa0f-d47edbc78b34"/>
            <linearGradient xlink:href="#53434817-2b10-40cd-a7f5-cda4285241a9" y2="72.02" x2="155.62" y1="72.02" x1="44.38" id="1799ad95-4588-4d39-8b75-8f46e6c2e74f"/>
        </defs>
        <path d="M100 2.02c-38.66 0-70 31.34-70 70s31.34 70 70 70 70-31.34 70-70-31.34-70-70-70Zm55.57 93.05c-.64 4.49-1.96 8.85-3.44 13.13-.74 2.15-1.52 4.28-2.28 6.43-.57 1.61-1.1 3.84-2.41 5.02-1.14 1.03-2.78 1.57-4.15 2.22a75.908 75.908 0 0 1-14.31 5.11c-2.77.68-5.57 1.11-8.4 1.51-6.93.82-13.7.22-20.58-.36-6.88.58-13.65 1.18-20.58.36-2.82-.4-5.63-.83-8.4-1.51-3.28-.81-6.51-1.84-9.66-3.09-1.57-.62-3.12-1.3-4.65-2.02-1.37-.65-3.01-1.19-4.15-2.22-1.31-1.18-1.84-3.41-2.41-5.02-.76-2.14-1.54-4.28-2.28-6.43-1.47-4.28-2.79-8.64-3.44-13.13-.61-4.27-.59-8.61-.3-12.91.14-2.16.36-4.31.6-6.46.11-.96.53-2.26.52-3.3h-.02c0-.03.01-.05.02-.07 0-.1-.01-.19-.02-.28v.04-.12.04c.13-1.08-.38-2.58-.5-3.65-.24-2.15-.45-4.3-.6-6.46-.29-4.3-.31-8.64.3-12.91.64-4.49 1.96-8.85 3.44-13.13.74-2.15 1.52-4.28 2.28-6.43.57-1.61 1.1-3.84 2.41-5.02 1.14-1.03 2.78-1.57 4.15-2.22a75.908 75.908 0 0 1 14.31-5.11c2.77-.68 5.57-1.11 8.4-1.51 6.93-.82 13.7-.22 20.58.36 6.88-.58 13.65-1.18 20.58-.36 2.82.4 5.63.83 8.4 1.51 3.28.81 6.51 1.84 9.66 3.09 1.57.62 3.12 1.3 4.65 2.02 1.37.65 3.01 1.19 4.15 2.22 1.31 1.18 1.84 3.41 2.41 5.02.76 2.14 1.54 4.28 2.28 6.43 1.47 4.28 2.79 8.64 3.44 13.13.61 4.27.59 8.61.3 12.91-.14 2.16-.36 4.31-.6 6.46-.12 1.08-.63 2.58-.5 3.65v-.04.12-.04c0 .05 0 .11-.01.16v.04c-.06 1.06.4 2.44.51 3.45.24 2.15.45 4.3.6 6.46.29 4.3.31 8.64-.3 12.91Z" fill="#003749"/>
        <path d="M45.2 72.08v-.06.06Z" fill="#dda431"/>
        <path d="M154.77 72.08v-.06.06Z" fill="#dda431"/>
        <path d="M99.99 16.18c.46-.11.9-.18 1.26-.15-.42-.04-.84-.07-1.26-.11-.42.04-.84.07-1.26.11.37-.03.8.04 1.26.15Z" fill="#dda431"/>
        <path d="M45.2 71.96v.06-.06Z" fill="#dda431"/>
        <path d="M45.21 72.02v.02c.01.09.02.18.02.28 0-.03 0-.05.02-.07l-.03-.23Z" fill="#dda431"/>
        <path d="M45.21 72v.04V72Z" fill="#dda431"/>
        <path d="M154.77 71.96v.06-.06Z" fill="#dda431"/>
        <path d="m44.7 72 .25 2.21c.47-2.98.51-8.16 1.33-11.09 2-7.12 5.77-13.58 9.8-19.73 2.31-3.52 4.9-6.88 7.93-9.82 2.9-2.82 6.11-5.72 9.58-7.81 4.9-2.96 9.9-5.14 15.43-6.63 2.37-.64 4.81-1.12 7.15-1.83.85-.26 2.16-.84 3.31-1.12-.46-.11-.9-.18-1.26-.15.42-.04.84-.07 1.26-.11-6.88-.58-13.65-1.18-20.58-.36-2.82.4-5.63.83-8.4 1.51-3.28.81-6.51 1.84-9.66 3.09-1.57.62-3.12 1.3-4.65 2.02-1.37.65-3.01 1.19-4.15 2.22-1.31 1.18-1.84 3.41-2.41 5.02-.76 2.14-1.54 4.28-2.28 6.43-1.47 4.28-2.79 8.64-3.44 13.13-.61 4.27-.59 8.61-.3 12.91.14 2.16.36 4.31.6 6.46.12 1.08.63 2.58.5 3.65Z" fill="url(#53434817-2b10-40cd-a7f5-cda4285241a9)"/>
        <path d="M156.39 82.16c-.15-2.16-.36-4.31-.6-6.46-.11-.96-.61-2.32-.6-3.36.13-.75.33-1.51.39-2.14.24-2.22.46-4.45.61-6.69.29-4.45.31-8.94-.31-13.36-.65-4.65-1.99-9.15-3.49-13.58-.75-2.22-1.54-4.43-2.31-6.65-.58-1.66-1.12-3.97-2.45-5.19-1.16-1.07-2.82-1.63-4.21-2.3-1.55-.75-3.12-1.45-4.72-2.09a73.737 73.737 0 0 0-9.8-3.19c-2.81-.71-5.66-1.14-8.52-1.56-7.04-.85-13.9-.23-20.89.37.43.04.85.07 1.28.11-.37-.03-.81.04-1.28.15 1.16.29 2.49.89 3.35 1.16 2.37.74 4.84 1.24 7.25 1.9 5.62 1.54 10.69 3.8 15.66 6.87 3.52 2.17 6.78 5.17 9.72 8.08 3.07 3.04 5.7 6.52 8.05 10.16 4.1 6.37 7.92 13.05 9.95 20.41.73 2.66 1.05 5.37 1.44 8.08-.35 2.66-.48 5.45-1.21 8.04-2.02 7.12-5.82 13.58-9.89 19.73-2.33 3.52-4.95 6.88-8 9.82-2.93 2.82-6.17 5.72-9.67 7.81-4.94 2.96-9.99 5.14-15.58 6.63-2.39.64-4.86 1.12-7.21 1.83-.8.24-1.99.76-3.09 1.05-1.09-.29-2.29-.81-3.09-1.05-2.36-.72-4.82-1.19-7.21-1.83-5.59-1.49-10.63-3.68-15.58-6.63-3.5-2.09-6.75-4.99-9.67-7.81-3.05-2.94-5.67-6.3-8-9.82-4.07-6.15-7.87-12.61-9.89-19.73-.79-2.8-1.1-5.66-1.54-8.51h-.03c0 1.03-.42 2.34-.53 3.3-.24 2.15-.46 4.3-.6 6.46-.29 4.3-.31 8.64.31 12.91.65 4.49 1.98 8.85 3.47 13.13.75 2.15 1.54 4.28 2.3 6.43.58 1.61 1.11 3.84 2.43 5.02 1.15 1.03 2.81 1.57 4.19 2.22 1.54.73 3.11 1.4 4.69 2.02 3.17 1.24 6.43 2.28 9.75 3.09 2.8.68 5.63 1.11 8.48 1.51 6.91.81 13.66.23 20.52-.34 6.86.58 13.61 1.15 20.52.34 2.85-.4 5.68-.83 8.48-1.51 3.32-.81 6.57-1.84 9.75-3.09 1.59-.62 3.15-1.3 4.69-2.02 1.38-.65 3.04-1.19 4.19-2.22 1.32-1.18 1.86-3.41 2.43-5.02.77-2.14 1.55-4.28 2.3-6.43 1.49-4.28 2.82-8.64 3.47-13.13.62-4.27.6-8.61.31-12.91Zm-56.14 45.94-1.02-.09c.3.02.65-.02 1.02-.09.37.08.72.12 1.02.09l-1.02.09Z" fill="url(#c3e210b4-53ad-434f-aa0f-d47edbc78b34)"/>
        <path d="M154.75 72.14v.06c0-.05 0-.11.01-.16v-.02s-.02.08-.02.12Z" fill="#dda431"/>
        <path d="M154.77 72.04V72v.04Z" fill="#dda431"/>
        <path d="M99.99 127.86c-.46.11-.9.18-1.26.15.42.04.84.07 1.26.11.42-.04.84-.07 1.26-.11-.37.03-.8-.04-1.26-.15Z" fill="#dda431"/>
        <path d="M45.23 72.32s-.01.05-.02.07h.02v-.08Z" fill="#dda534"/>
        <path d="M154.76 72.24v-.04.04Z" fill="#dda534"/>
        <path d="M45.25 72.25s-.28-1.05-.28-1.02c0 .03.27 1.15.27 1.17h.03c0-.05-.02-.1-.02-.15Z" fill="#dda534"/>
        <path d="M154.73 72.25h.02v-.1c0 .03-.01.07-.02.1Z" fill="#dda534"/>
        <path d="M152.83 71.58c-8.9-1.77-17.79-3.55-26.2-7.12-7.72-3.28-13.7-8.42-17.5-16-2.53-5.04-4.18-10.36-5.58-15.79-1.35-5.24-2.35-10.55-3.41-15.94-.15.19-.24.25-.26.34-.08.28-.14.57-.2.87-1.8 9.19-3.61 18.38-7.15 27.12-3.78 9.32-10.29 15.84-19.59 19.64-7.29 2.97-14.92 4.68-22.59 6.28-1.89.39-3.83.57-5.97 1.32 1.08.2 1.82.34 2.54.48 8.94 1.78 17.9 3.53 26.35 7.12 4.99 2.12 9.45 4.98 13.04 9.14 3.63 4.21 5.94 9.11 7.72 14.3 2.68 7.8 4.27 15.86 6.16 23.99.13-.6.27-1.2.39-1.8 1.76-9 3.53-18 7.12-26.51 2.74-6.5 6.77-11.96 12.81-15.82 4.86-3.1 10.21-5.01 15.7-6.57 6.31-1.79 12.74-3.07 19.42-4.32-1.03-.55-1.94-.56-2.79-.73Zm-36.39 2.21c-2.47.61-4.87 1.47-7.08 2.78-3.58 2.12-5.54 5.44-6.84 9.25-1.17 3.43-1.78 6.99-2.59 10.8-.62-2.8-1.15-5.35-1.77-7.89-.63-2.58-1.51-5.07-2.88-7.37-2.14-3.57-5.47-5.5-9.29-6.8-3.4-1.15-6.93-1.75-10.46-2.65 1.68-.35 3.36-.69 5.04-1.05 2.66-.57 5.27-1.32 7.78-2.38 4.72-2 7.44-5.7 8.99-10.44 1.01-3.08 1.62-6.26 2.28-9.42.07-.33.15-.66.28-1.19.63 2.82 1.16 5.45 1.82 8.04.81 3.14 1.89 6.19 3.97 8.76 2.14 2.65 5.04 4.1 8.17 5.18 3.07 1.06 6.25 1.63 9.42 2.28.33.07.66.15 1.17.27-2.8.63-5.42 1.17-8.02 1.81Z" fill="url(#1799ad95-4588-4d39-8b75-8f46e6c2e74f)"/>
        <path d="M45.52 179.15c.61.48 1.3.84 2.08 1.07s1.58.35 2.4.35c.75 0 1.48-.1 2.21-.31.72-.2 1.38-.51 1.96-.92.59-.41 1.08-.92 1.49-1.53s.66-1.33.76-2.13h15.39c.56 0 1.08-.11 1.57-.32a4.121 4.121 0 0 0 2.18-2.16c.21-.49.32-1.02.32-1.59v-8.59H73.4v8.59c0 .23-.04.44-.12.63a1.582 1.582 0 0 1-1.47.96h-4.05v-10.18h-2.48v10.18h-3.16v-10.18h-2.48v10.18h-3.16v-10.18H54v11.84c0 .54-.12 1.01-.35 1.42s-.53.74-.91 1.01c-.37.27-.8.47-1.29.61-.48.13-.97.2-1.47.2s-1-.07-1.48-.2c-.48-.14-.91-.34-1.29-.61-.37-.27-.68-.61-.91-1.01s-.35-.88-.35-1.42v-9.53h-2.48v9.53c0 .96.18 1.79.55 2.5.37.71.86 1.3 1.47 1.78Z" fill="#ecc383"/>
        <path d="M76.49 159.83h-1.85c-.07 0-.14-.03-.2-.09s-.12-.14-.16-.24-.08-.21-.1-.33-.04-.25-.04-.38c0-.2.07-.38.2-.55.14-.17.35-.26.65-.27h1.04v-1.24h-1.06c-.38 0-.69.07-.96.19s-.47.27-.64.46c-.16.19-.28.41-.35.65-.07.24-.11.49-.11.75 0 .35.07.69.21 1.04h-.64v1.24h4.02v-1.24Z" fill="#ecc383"/>
        <path fill="#ecc383" d="M81.71 158.12v17.56h-2.48v-17.56h2.48z"/>
        <path d="M95.1 165.95c-.25-.43-.55-.82-.9-1.17a6.02 6.02 0 0 0-1.16-.92c-.42-.26-.88-.46-1.36-.6s-1-.22-1.53-.22c-.78 0-1.52.15-2.22.46-.7.31-1.3.73-1.81 1.25-.51.53-.92 1.14-1.22 1.85-.3.71-.45 1.47-.45 2.27v2.79c0 .56.11 1.08.32 1.56s.5.91.87 1.27.79.65 1.28.85c.49.21 1.01.31 1.55.31h4.84a3.3 3.3 0 0 1-.42.98c-.2.3-.43.55-.7.77-.27.22-.58.39-.93.51-.34.12-.7.18-1.08.18h-3.89v2.47h3.89c.78 0 1.52-.15 2.22-.45s1.3-.71 1.81-1.22.92-1.12 1.22-1.81.45-1.43.45-2.22v-6.07c0-.51-.07-1.01-.2-1.5s-.33-.94-.57-1.37Zm-1.71 7.26h-4.93c-.21 0-.41-.04-.59-.12-.19-.08-.35-.19-.49-.33s-.25-.3-.33-.49c-.08-.19-.12-.39-.12-.59v-2.79a3.409 3.409 0 0 1 .94-2.39c.29-.3.63-.54 1.02-.72a3.11 3.11 0 0 1 2.51.01c.4.18.74.42 1.04.72a3.275 3.275 0 0 1 .95 2.32v4.4Z" fill="#ecc383"/>
        <path d="M100.08 179.83c.48-.33.89-.67 1.25-1.02s.64-.71.87-1.07c.23-.36.42-.71.57-1.04.34-.78.51-1.58.52-2.39v-11.28h-2.48v11.38c0 .5-.13.98-.37 1.46-.1.21-.23.42-.39.65s-.36.45-.6.67c-.24.23-.53.45-.86.66-.33.21-.71.41-1.16.59l.95 2.28c.64-.27 1.21-.57 1.68-.9Z" fill="#ecc383"/>
        <path d="M121.39 160.27c.12.11.25.2.4.27s.31.1.49.1c.35 0 .64-.12.89-.37.24-.24.37-.54.37-.89 0-.17-.03-.34-.1-.49-.07-.15-.16-.29-.27-.4s-.25-.21-.4-.27-.31-.1-.49-.1-.34.03-.49.1-.29.16-.4.27-.21.25-.27.4c-.07.15-.1.32-.1.49s.03.34.1.49c.07.15.16.29.27.4Z" fill="#ecc383"/>
        <path d="M122.7 180.12c.69-.3 1.29-.71 1.81-1.22.51-.51.92-1.12 1.22-1.81s.45-1.43.45-2.22v-6.05c0-.78-.15-1.52-.45-2.22a5.939 5.939 0 0 0-3.05-3.1c-.7-.31-1.44-.46-2.22-.46s-1.53.15-2.23.46c-.69.31-1.3.73-1.81 1.25-.52.53-.93 1.14-1.22 1.85-.3.71-.44 1.47-.44 2.27v2.78c0 .56.1 1.08.31 1.56s.5.91.86 1.28c.37.36.79.65 1.28.86.49.21 1.01.31 1.57.31h4.83c-.09.35-.23.67-.42.97-.2.3-.43.55-.7.77-.27.22-.58.39-.92.51-.34.12-.7.18-1.07.18h-4.33c-.47 0-.91-.09-1.32-.27-.41-.18-.77-.42-1.08-.72-.31-.31-.55-.66-.72-1.07s-.26-.85-.26-1.32v-9.37h-2.48v9.37c0 .81.16 1.57.46 2.28.31.71.73 1.33 1.25 1.85.53.53 1.15.94 1.86 1.25.71.31 1.48.46 2.28.46h4.33c.78 0 1.52-.15 2.21-.45Zm-3.93-6.91c-.21 0-.41-.04-.59-.12-.19-.08-.35-.19-.49-.33s-.25-.3-.33-.49c-.08-.19-.12-.39-.12-.61v-2.78c0-.47.08-.91.25-1.32.16-.41.39-.77.69-1.07.29-.3.63-.54 1.02-.72.39-.17.81-.26 1.27-.26s.86.09 1.26.27c.4.18.74.42 1.04.72a3.275 3.275 0 0 1 .95 2.32v4.4h-4.93Z" fill="#ecc383"/>
        <path d="M117.7 160.27c.12.11.25.2.4.27s.31.1.49.1.34-.03.49-.1.29-.15.4-.27c.12-.11.21-.25.27-.4.07-.15.1-.31.1-.49s-.03-.34-.1-.49c-.07-.15-.16-.29-.27-.4s-.25-.21-.4-.27-.31-.1-.49-.1-.34.03-.49.1-.29.16-.4.27-.21.25-.27.4c-.07.15-.1.32-.1.49s.03.34.1.49c.07.15.16.29.27.4Z" fill="#ecc383"/>
        <path d="M143.11 160.27c.12.11.25.2.4.27s.31.1.49.1c.35 0 .64-.12.89-.37.24-.24.37-.54.37-.89 0-.17-.03-.34-.1-.49-.07-.15-.16-.29-.27-.4s-.25-.21-.4-.27-.31-.1-.49-.1-.34.03-.49.1-.29.16-.4.27-.21.25-.27.4c-.07.15-.1.32-.1.49s.03.34.1.49c.07.15.16.29.27.4Z" fill="#ecc383"/>
        <path d="M140.64 175.68h16.8c.56 0 1.09-.1 1.58-.29.5-.2.93-.47 1.29-.83.37-.36.66-.78.87-1.29.21-.5.32-1.06.32-1.68v-2.99c0-.77-.14-1.5-.43-2.18-.3-.68-.7-1.27-1.22-1.77s-1.12-.9-1.8-1.19c-.69-.29-1.43-.44-2.21-.44s-1.51.14-2.2.43c-.69.29-1.29.68-1.8 1.19a5.83 5.83 0 0 0-1.21 1.79c-.3.69-.44 1.43-.44 2.24v4.52h-3.96v-10.18h-2.48v10.18h-5.64v-4.3c0-.95-.16-1.79-.48-2.52-.32-.73-.82-1.35-1.5-1.84-.68-.5-1.56-.88-2.63-1.13-1.07-.26-2.36-.39-3.88-.39v2.47c1.07 0 1.98.07 2.74.22.76.15 1.38.37 1.86.66.48.29.84.65 1.06 1.07.23.42.34.91.34 1.46v4.31h-6.71v2.47h11.71Zm12.03-7c0-.45.08-.87.25-1.26.16-.39.39-.72.68-1.01.29-.29.62-.51 1.01-.67.39-.16.8-.24 1.23-.24s.86.08 1.24.24c.39.16.73.38 1.02.66a2.947 2.947 0 0 1 .91 2.21v2.99c0 .24-.04.47-.12.67a1.497 1.497 0 0 1-.85.84c-.19.08-.4.12-.62.12h-4.76v-4.53Z" fill="#ecc383"/>
        <path d="M154.94 160.27c.12.11.25.2.4.27s.31.1.49.1c.35 0 .64-.12.89-.37.24-.24.37-.54.37-.89 0-.17-.03-.34-.1-.49-.07-.15-.16-.29-.27-.4s-.25-.21-.4-.27-.31-.1-.49-.1-.34.03-.49.1-.29.16-.4.27-.21.25-.27.4c-.07.15-.1.32-.1.49s.03.34.1.49c.07.15.16.29.27.4Z" fill="#ecc383"/>
        <path d="M51.89 196.19c-.07-.79-.11-1.25-.13-1.41-.05-.49-.18-.9-.39-1.2-.28-.42-.68-.68-1.21-.79.43-.15.78-.36 1.07-.63.54-.53.81-1.22.81-2.08 0-1.12-.45-1.96-1.34-2.51-.52-.32-1.24-.48-2.16-.48h-5.03v11.01h1.45v-4.77h2.9c.83 0 1.42.11 1.77.34.5.32.77 1.08.84 2.27.05.96.1 1.54.15 1.72.06.2.12.35.19.45h1.66l-.14-.16c-.2-.22-.35-.81-.43-1.75Zm-2.71-4.15c-.35.07-.84.11-1.48.11h-2.74v-3.8h3.12c.38 0 .7.02.98.07.42.06.75.21.99.45.34.33.52.78.52 1.35 0 .49-.11.88-.34 1.18-.25.34-.6.56-1.06.65Z" fill="#003749"/>
        <path d="m57.75 187.04-4.32 11.05h1.53l1.26-3.38h4.62l1.23 3.38h1.62l-4.3-11.05h-1.63Zm-1.11 6.5 1.11-2.99c.35-.94.62-1.66.8-2.17.15.49.41 1.23.78 2.23l1.09 2.93h-3.77Z" fill="#003749"/>
        <path d="M74.81 193.99c-.27 1.07-.45 1.94-.55 2.6-.15-.84-.35-1.72-.6-2.63l-1.88-6.88h-1.6l-1.84 6.72c-.32 1.19-.54 2.12-.65 2.79-.11-.72-.3-1.64-.57-2.76l-1.63-6.75h-1.51l2.85 11.01h1.55l1.85-6.82c.32-1.1.56-2.04.72-2.8.15.82.37 1.79.67 2.89l1.86 6.73h1.54l2.93-11.01H76.5l-1.7 6.91Z" fill="#003749"/>
        <path d="m82.57 187.04-4.32 11.05h1.53l1.26-3.38h4.62l1.23 3.38h1.62l-4.3-11.05h-1.63Zm-1.11 6.5 1.11-2.99c.35-.94.62-1.66.8-2.17.15.49.41 1.23.78 2.23l1.09 2.93h-3.77Z" fill="#003749"/>
        <path fill="#003749" d="M91.36 193.02h5.76v-1.17h-5.76v-3.5h6.17v-1.27h-7.62v11.01h7.7v-1.27h-6.25v-3.8z"/>
        <path d="M105.26 192.2c-.35-.12-.94-.27-1.77-.45-1.21-.26-2.02-.5-2.41-.73-.39-.22-.59-.6-.59-1.12 0-.65.27-1.13.82-1.46.41-.24.96-.37 1.66-.37.96 0 1.67.24 2.13.71.33.34.54.85.62 1.53h1.4c-.03-.74-.19-1.35-.5-1.84-.69-1.09-1.9-1.63-3.64-1.63-1.17 0-2.1.27-2.78.8-.74.58-1.11 1.37-1.11 2.35 0 .66.17 1.2.52 1.63.31.38.8.68 1.46.91.2.07.82.22 1.84.46.68.16 1.12.27 1.3.32.67.2 1.16.44 1.45.72.28.27.42.62.42 1.08 0 .58-.23 1.06-.69 1.44-.45.38-1.13.56-2.03.56-1.22 0-2.12-.33-2.7-.98-.35-.4-.54-.96-.55-1.66H98.7c.02 1.52.6 2.6 1.77 3.24.77.43 1.7.64 2.79.64 1.32 0 2.33-.28 3.05-.84.82-.64 1.23-1.47 1.23-2.51 0-.61-.18-1.15-.53-1.62-.4-.52-.99-.91-1.77-1.18Z" fill="#003749"/>
        <path fill="#003749" d="M119.33 191.67h-5.81v-4.59h-1.46v11.01h1.46v-5.16h5.81v5.16h1.45v-11.01h-1.45v4.59z"/>
        <path d="M128.16 186.83c-1.59 0-2.9.53-3.91 1.59-.96 1.01-1.45 2.4-1.45 4.18 0 1.51.37 2.76 1.12 3.76.98 1.32 2.36 1.98 4.14 1.98s3.16-.66 4.14-1.97c.75-1.01 1.13-2.28 1.13-3.8 0-1.71-.48-3.1-1.45-4.15-.97-1.06-2.21-1.59-3.72-1.59Zm2.49 9.25c-.67.68-1.52 1.02-2.55 1.02-.52 0-1.02-.1-1.48-.3-.58-.24-1.05-.61-1.43-1.09-.61-.78-.91-1.83-.91-3.16 0-1.41.36-2.52 1.09-3.32.71-.78 1.63-1.17 2.77-1.17s2 .41 2.7 1.23c.7.83 1.05 1.92 1.05 3.29 0 1.5-.41 2.67-1.23 3.5Z" fill="#003749"/>
        <path fill="#003749" d="M134.34 188.35h3.69v9.74h1.45v-9.74h3.71v-1.27h-8.85v1.27z"/>
        <path fill="#003749" d="M146.18 193.02h5.77v-1.17h-5.77v-3.5h6.17v-1.27h-7.62v11.01h7.7v-1.27h-6.25v-3.8z"/>
        <path fill="#003749" d="M155.85 196.82v-9.74h-1.45v11.01h7.3v-1.27h-5.85z"/>
    </g>
</svg>
