<?xml version="1.0" encoding="UTF-8"?>
<svg data-bbox="84.5 59.153 3511.984 1339.686" viewBox="0 0 3681 1458" xmlns:xlink="http://www.w3.org/1999/xlink" xmlns="http://www.w3.org/2000/svg" data-type="ugc">
    <g>
        <defs>
            <linearGradient gradientUnits="userSpaceOnUse" y2="451.56" x2="727.07" y1="451.56" x1="85.39" id="c9b450ff-fd9c-43ea-8ef0-80a5a23fa35b">
                <stop stop-color="#c09637" offset="0"/>
                <stop stop-color="#ece7b3" offset="0"/>
            </linearGradient>
            <linearGradient gradientUnits="userSpaceOnUse" y2="445.07" x2="3596.1" y1="445.07" x1="2839.7" id="328972fc-a01e-4215-8bde-5701a0b136c7">
                <stop stop-color="#ece7b3" offset="0"/>
                <stop stop-color="#ece7b3" offset="1"/>
            </linearGradient>
            <linearGradient xlink:href="#328972fc-a01e-4215-8bde-5701a0b136c7" y2="440.51" x2="2695.41" y1="440.51" x1="2145.83" id="9086cd63-485e-4543-8e21-3b833858f34b"/>
            <linearGradient xlink:href="#c9b450ff-fd9c-43ea-8ef0-80a5a23fa35b" y2="453.49" x2="1410.86" y1="453.49" x1="827.38" id="bd6cc4af-442e-4929-9711-4da9420ecfd0"/>
            <linearGradient xlink:href="#c9b450ff-fd9c-43ea-8ef0-80a5a23fa35b" y2="444.01" x2="2018.53" y1="444.01" x1="1487.2" id="ff26fed9-90fd-4c42-83b8-a2454703b0af"/>
            <linearGradient gradientUnits="userSpaceOnUse" y2="968.27" x2="728.49" y1="968.27" x1="84.5" id="8fd9d706-1967-4069-9f87-5ea950f0c475">
                <stop stop-color="#c09637" offset="0"/>
                <stop stop-color="#cdad52" offset=".39"/>
                <stop stop-color="#ece7b3" offset=".86"/>
            </linearGradient>
            <linearGradient xlink:href="#8fd9d706-1967-4069-9f87-5ea950f0c475" y2="1110.36" x2="3596.5" y1="1110.36" x1="3095.68" id="f620cfd4-186f-4974-87e4-45b5872c0970"/>
            <linearGradient xlink:href="#8fd9d706-1967-4069-9f87-5ea950f0c475" y2="869.67" x2="440.24" y1="869.67" x1="344.63" id="e89a94fb-a095-4172-93c3-aa009ec3d0fc"/>
            <linearGradient xlink:href="#8fd9d706-1967-4069-9f87-5ea950f0c475" y2="1289.11" x2="3012.41" y1="1289.11" x1="2916.8" id="3e4d882a-b55c-4a31-978c-2b8a39d5870c"/>
            <linearGradient xlink:href="#8fd9d706-1967-4069-9f87-5ea950f0c475" gradientTransform="rotate(22.5 2849.163 1289.108)" y2="1289.11" x2="2896.98" y1="1289.11" x1="2801.37" id="e861396e-e25d-438f-9642-f847412282f9"/>
            <linearGradient gradientUnits="userSpaceOnUse" y2="606.01" x2="3039.49" y1="606.01" x1="824.96" id="dc374091-0f66-4e9c-bcd5-c9c021b4ae27">
                <stop stop-color="#c09637" offset="0"/>
                <stop stop-color="#cdad52" offset=".6"/>
                <stop stop-color="#ece7b3" offset=".86"/>
            </linearGradient>
        </defs>
        <path d="M281.27 555.87c75.95 80.99 151.53 144.55 206.41 228.16 8.64 13.16 15.17 24.88 18.73 37.84h220.45c.06-3.08.11-6.16.18-9.24.57-26.12-10.9-37.06-27.81-55.8-67.05-74.3-132.51-150.12-192.05-235.91 12.77-2.81 21.11-4.7 29.47-6.48 117.97-25.15 168.99-148.78 155.93-245.06-17.7-130.55-84.68-187.12-214.41-186.86-110.14.22-220.34 1.88-330.4-1.18-46.89-1.3-62.74 12.58-62.38 61.22 1.68 226.43.91 452.87.67 679.31h194.45c-.12-85.91.76-173.59.76-265.99Zm8.33-388.4c.56-37.47 24.55-49.39 64.44-49.39 67.51 0 85.82 23.02 105.31 69.76 26.25 62.98 43.55 131.45 13.98 194.8-36.44 78.07-79.44 91.12-163.18 93.03-20.56.47-17.9-13.26-18.23-26.56-2.32-93.35-3.74-187.69-2.32-281.64Z" fill="url(#c9b450ff-fd9c-43ea-8ef0-80a5a23fa35b)"/>
        <path d="m3040.41 440.16.38-78.85s.01-.01.02 0c104.89 149.33 219.12 311.29 324.25 460.56h231.03c-.7-211.95-3.23-428.63-3.23-635.88 0-54.14 8.33-103.45-58.65-101.86-28.5.67-64.82 0-104.95 0-26.03 0-51.7 12.04-51.66 44.3.18 122.9 5.98 246.45 5.36 369.33-.09 17.33 2.8 42.01-16.3 48.9-19.27 6.94-28.62-17.58-39-31.6-66.8-90.19-133.31-180.59-199.68-271.1-21.4-29.18-40.21-60.11-60.36-90.14-27.88-41.55-41.19-90.52-95.2-85.12-30.87 3.09-64.82 6.17-98.78 12.35-12.6 2.29-25.78 9.08-33.95 19.74v721.09h199.98c.07-127.23.1-254.47.74-381.7Z" fill="url(#328972fc-a01e-4215-8bde-5701a0b136c7)"/>
        <path d="M2346.52 536.43c0-16.25 13.17-29.42 29.42-29.42h86.27c16.25 0 29.42 13.17 29.42 29.42v285.44h203.77v-569.4c-4.68-17.85-12.01-35.25-23.55-52.06-63.58-92.62-144.74-144.99-262.27-141.05-84.79 2.84-164.78 49.68-216.31 115.81-24.16 31-38.69 64.92-47.44 100.48v546.21h200.69V536.42Zm0-355.34c0-14.34 11.63-25.97 25.97-25.97h93.17c14.34 0 25.97 11.63 25.97 25.97v244.4c0 14.34-11.63 25.97-25.97 25.97h-93.17c-14.34 0-25.97-11.63-25.97-25.97v-244.4Z" fill="url(#9086cd63-485e-4543-8e21-3b833858f34b)"/>
        <path d="M1402.57 817.36c7.89-8.68 10.69-21.32 6.03-32.16-7.47-17.39-27.94-18.98-45.24-18.95l-273.66.42c-10.51.02-22.66-.76-28.89-9.41-4.22-5.85-4.38-13.67-4.37-20.94.07-73.22.15-146.44.22-219.66 0-7.14.2-14.86 4.45-20.52 6.03-8.02 17.43-8.64 27.33-8.56 77.93.67 155.86 1.33 233.79 2 19.94.17 41.04.07 56.81-14.71 8.28-7.76 12.34-19.53 9.11-30.52-6.01-20.4-30.83-23.43-50.86-23.39l-251.13.51c-7.37.02-15.35-.17-21.16-4.79-7.98-6.34-8.65-18.18-8.64-28.5l.21-225.04c0-8.4.28-17.58 5.62-23.97 6.65-7.96 18.32-8.44 28.56-8.3 75.79 1.04 151.58 2.09 227.37 3.13 17.47.24 36.05.22 49.68-13.01 6.83-6.63 10.19-16.49 7.46-25.7-5.13-17.31-25.19-19.45-41.61-19.43l-468.41.42c-11.37.01-24.35.77-31.49 9.8-5.42 6.87-5.68 16.44-5.69 25.26-.23 239.93-.46 479.85-.7 719.78h553.9c7.82-2.65 15.08-6.91 21.29-13.75Z" fill="url(#bd6cc4af-442e-4929-9711-4da9420ecfd0)"/>
        <path d="M1990.81 697.67c22.11-37.84 31.74-84.71 26.16-127.66-.52-4.03-1.18-8.04-1.97-12.03-8.88-44.68-35.11-85.94-72.42-112.22-32.12-22.63-68.33-39.36-102.22-59.13-37.04-21.61-73.48-43-101.86-71-11.69-11.53-21.84-25.07-26.29-41.09-4.18-15.04-3.77-33.36.43-48.37 2.53-9.05 8.22-17.07 15.28-23.19 9.17-7.94 20.53-12.94 32.08-16.63 49.28-15.75 102.75-9.26 153.51.78 12.81 2.53 25.57 5.28 38.31 8.1 6.37 1.41 12.72 2.95 19.11 4.28 5.29 1.1 10.45-.76 15.44-2.58 10.97-4.03 20.18-11.91 26-22.03 5.78-10.07 8.4-23.18 3.74-34.2-4.77-11.31-15.79-18.36-26.35-23.62-19.17-9.56-39.27-17.11-59.54-23.96-1.41-.48-2.82-.95-4.24-1.42-39.16-12.85-79.85-21.01-120.92-24.35-41.07-3.34-82.55-1.86-123.26 4.57-25.91 4.09-52.66 11.64-76.52 22.73-35.8 16.61-65.24 44.37-87.59 76.6-4.81 6.94-9.28 14.11-13.39 21.48-5.86 10.54-10.59 21.99-13.48 33.71-5.12 20.76-4.42 42.63-.48 63.65 7.5 40.04 26.3 77.56 49.26 110.91a378.135 378.135 0 0 0 36.42 45.07c25.02 26.54 53.84 49.52 85.35 67.89 21.08 12.32 43.01 22.87 63.05 36.98 20.98 14.76 39.88 34.23 47.59 58.69 5.56 17.64 4.89 37.01-.8 54.61-11.46 35.46-43.46 58.07-77.87 69.02-3.28 1.04-6.61 1.94-9.98 2.67-19.7 4.26-40.02.99-58.65-6.16-7.3-2.81-14.38-6.17-21.26-9.89-24.52-13.28-46.59-30.77-71.71-42.99-8.79-4.28-17.99-8.01-27.51-10.3-7.82-1.88-13.85 3.48-15.82 10.79-.89 3.3-1.11 6.78-.98 10.18.41 10.87 3.05 21.55 6.38 31.9 5.34 16.57 13.06 33.5 26.78 44.81 14.89 12.27 31.12 22.52 48.71 30.51 13.82 6.27 28.21 11.26 42.85 15.2 13.26 3.57 26.77 6.25 40.37 8.14 44.28 6.17 89.15 4.49 133.64 1.89 5.08-.3 10.59-.07 15.52-1.29 4.63-1.15 9.34-2.11 14.06-3.06 16.06-3.21 31.54-6.93 46.86-12.67 17.94-6.72 35.22-15.25 51.37-25.56 11.46-7.33 22.36-15.56 32.48-24.65 8.9-7.99 16.85-16.97 24.24-26.36 3.7-4.7 7.26-9.51 10.75-14.36 3.33-4.63 6.45-9.45 9.36-14.43Z" fill="url(#ff26fed9-90fd-4c42-83b8-a2454703b0af)"/>
        <path d="M728.3 821.86H509.79c.24 2.98.35 6.06.29 9.27-1.1 61.63-1.67 123.32.24 184.91.83 26.7-7.88 32.02-33.7 32.9-33.31 1.14-93.18 1.14-125.83 1.14-71.24 0-67.44-19.68-69.13-91.32-1.07-45.47-1.52-90.96-1.65-136.9H84.55c-.03 29.85-.05 59.7-.05 89.54 0 97.62 99.57 200.95 197.76 202.07 136.1 1.56 272.24-.69 408.33 1.18 32.32.45 38.42-10.6 37.88-39.95-1.54-84.26-1.68-168.58-.16-252.85Z" fill="url(#8fd9d706-1967-4069-9f87-5ea950f0c475)"/>
        <path d="M3595.59 890.02c-.02-22.64-.07-45.38-.14-68.16h-230.78c6.16 13.34 2.5 27.5 2.56 41.14.51 101.7-.3 203.41.28 305.11.49 87.15-25.01 115.02-115.05 119.22-32.49 1.52-62.85-10.59-92.52-22.01-19.66-7.57-39.09-18.53-56.22 2.22-20.44 24.76 2.84 42.42 16.39 56.36 103.24 106.26 335.25 98.18 431.55-15.74 28.1-33.24 45.1-71.31 44.82-118.49 0-99.88-.84-199.77-.91-299.65Z" fill="url(#f620cfd4-186f-4974-87e4-45b5872c0970)"/>
        <path fill="url(#e89a94fb-a095-4172-93c3-aa009ec3d0fc)" d="M440.24 869.67c0 26.4-21.4 47.8-47.8 47.8s-47.8-21.4-47.8-47.8 21.4-47.8 47.8-47.8 47.8 21.4 47.8 47.8z"/>
        <path fill="url(#3e4d882a-b55c-4a31-978c-2b8a39d5870c)" d="M3012.4 1289.11c0 26.4-21.4 47.8-47.8 47.8s-47.8-21.4-47.8-47.8 21.4-47.8 47.8-47.8 47.8 21.4 47.8 47.8z"/>
        <path transform="rotate(-22.5 2849.176 1289.109)" fill="url(#e861396e-e25d-438f-9642-f847412282f9)" d="M2896.97 1289.11c0 26.4-21.4 47.8-47.8 47.8s-47.8-21.4-47.8-47.8 21.4-47.8 47.8-47.8 47.8 21.4 47.8 47.8z"/>
        <path d="M2839.7 1032.99c0 16.26-13.18 29.44-29.43 29.44h-86.08c-16.26 0-29.43-13.18-29.43-29.44V821.86h-203.55v211.17c0 16.23-13.16 29.39-29.39 29.39h-86.17c-16.23 0-29.39-13.16-29.39-29.39V821.86h-200.47v235.91c0 7.68-6.22 13.9-13.9 13.9h-61.36c-10.64.48-21.31.46-31.96 0h-22.58c-13.48 0-24.4-10.92-24.4-24.4v-350.2c-33.01 58.72-96.4 103-173.15 118.62a305.376 305.376 0 0 1-45.82 5.75v120.7h1.54l-.24 100.05c-.02 6.8-.2 14.13-4.3 19.56-5.88 7.79-17.11 8.48-26.87 8.49-220.21.01-440.42.03-660.63.04-7.03 0-14.7-.23-20.05-4.79-6.53-5.57-7.06-15.29-7.08-23.87l-.54-201.39-.02-9.12h-46.22c-37.72 0-68.3-30.58-68.3-68.3V75.5h-83.5c-16.91 0-30.61 13.71-30.61 30.61v715.75h-.54c-.09 88.21-.17 176.43-.26 264.64-.01 13.32.45 27.96 9.36 37.87 10.2 11.35 27.4 12.15 42.66 12.14 196.97-.18 393.94-.37 590.92-.55 240.41-.23 480.82-.38 721.23-.37 241.66 0 483.32.07 724.97.07 93.91 0 124.93-31.12 125.16-127.63.15-62.05.2-124.11.24-186.16h-199.8V1033Z" fill="url(#dc374091-0f66-4e9c-bcd5-c9c021b4ae27)"/>
    </g>
</svg>
