<?xml version="1.0" encoding="UTF-8"?>
<svg data-bbox="61.68 181.491 3557.621 3636.019" viewBox="0 0 3681 3999" xmlns:xlink="http://www.w3.org/1999/xlink" xmlns="http://www.w3.org/2000/svg" data-type="ugc">
    <g>
        <defs>
            <linearGradient gradientUnits="userSpaceOnUse" y2="997.81" x2="514.32" y1="997.81" x1="62.45" id="c687aefc-3a17-4329-b99c-dcf5c07245e8">
                <stop stop-color="#cdad52" offset="0"/>
                <stop stop-color="#c09637" offset=".61"/>
                <stop stop-color="#956828" offset="1"/>
            </linearGradient>
            <linearGradient xlink:href="#c687aefc-3a17-4329-b99c-dcf5c07245e8" y2="680.69" x2="1309.78" y1="680.69" x1="487.85" id="9cf22a62-822d-4d9d-bd57-c22440486817"/>
            <linearGradient xlink:href="#c687aefc-3a17-4329-b99c-dcf5c07245e8" y2="990.3" x2="3607.47" y1="990.3" x1="3131.98" id="f27fc5cd-f60e-4260-a763-6197d2b55523"/>
            <linearGradient xlink:href="#c687aefc-3a17-4329-b99c-dcf5c07245e8" y2="665.64" x2="2769.63" y1="665.64" x1="898.82" id="90b575d7-c2ea-4172-9fbe-cde6969d2ae7"/>
            <linearGradient xlink:href="#c687aefc-3a17-4329-b99c-dcf5c07245e8" y2="1730.3" x2="1136.72" y1="1730.3" x1="1136.57" id="6015a8d0-6d58-4391-9fe5-23a07e4b3f98"/>
            <linearGradient xlink:href="#c687aefc-3a17-4329-b99c-dcf5c07245e8" y2="1566.02" x2="1397.05" y1="1566.02" x1="62.45" id="2fd09549-e85e-48d8-acd3-29855a2d084a"/>
            <linearGradient xlink:href="#c687aefc-3a17-4329-b99c-dcf5c07245e8" y2="1725.56" x2="2773.26" y1="1725.56" x1="902.55" id="3eacdf0e-9295-4ace-a2eb-479794bad9de"/>
            <linearGradient xlink:href="#c687aefc-3a17-4329-b99c-dcf5c07245e8" y2="1566.02" x2="3619.32" y1="1566.02" x1="2345.31" id="d11bc0bb-ddff-4be8-955c-41c387e88ed6"/>
            <linearGradient xlink:href="#c687aefc-3a17-4329-b99c-dcf5c07245e8" y2="654.11" x2="3150.21" y1="654.11" x1="2355.53" id="ea740297-44b3-4ed0-ac07-73204f8ac629"/>
        </defs>
        <path d="M269.98 2739.43c4.82 0 9.34-.9 13.55-2.72 4.21-1.8 7.95-4.27 11.21-7.4 3.25-3.13 5.78-6.8 7.59-11.02 1.81-4.22 2.71-8.74 2.71-13.56s-.9-9.33-2.71-13.56a35.426 35.426 0 0 0-7.59-11.19c-3.25-3.26-6.99-5.78-11.21-7.6-4.22-1.8-8.74-2.71-13.55-2.71s-9.34.91-13.55 2.71c-4.22 1.82-7.9 4.34-11.02 7.6-3.13 3.24-5.6 6.99-7.41 11.19-1.81 4.23-2.71 8.74-2.71 13.56 0 9.64 3.37 17.83 10.12 24.58 6.74 6.75 14.94 10.12 24.58 10.12Z" fill="#232c37"/>
        <path d="M381.31 3131.61c0 15.18-3.2 28.49-9.58 39.95-6.39 11.43-14.82 21.02-25.3 28.73-10.48 7.71-22.36 13.49-35.6 17.35-13.25 3.86-26.87 5.78-40.84 5.78s-27.6-1.93-40.84-5.78c-13.25-3.86-25.07-9.64-35.42-17.35-10.36-7.71-18.74-17.3-25.12-28.73-6.39-11.46-9.58-24.77-9.58-39.95v-262.06H90.35v262.06c0 26.75 5.12 50.12 15.36 70.12 10.24 20 23.8 36.68 40.66 50.07 16.86 13.36 36.09 23.36 57.65 29.99 21.56 6.63 43.56 9.95 65.97 9.95s44.4-3.32 65.97-9.95c21.56-6.63 40.78-16.63 57.65-29.99 16.86-13.38 30.48-30.07 40.84-50.07 10.36-20 15.54-43.38 15.54-70.12v-326.04h-68.68v326.04Z" fill="#232c37"/>
        <path d="M557.88 2596.68c-1.81-1.68-3.31-3.89-4.52-6.64-1.21-2.75-2.17-5.81-2.89-9.16-.72-3.35-1.08-6.82-1.08-10.41 0-5.51 1.86-10.59 5.6-15.26 3.74-4.67 9.7-7.12 17.89-7.36h28.56v-34.34h-29.28c-10.36.24-19.16 1.98-26.39 5.21-7.23 3.24-13.07 7.5-17.53 12.78-4.46 5.28-7.72 11.28-9.76 18.01-2.05 6.71-3.07 13.67-3.07 20.87 0 9.61 1.93 19.2 5.78 28.8h-17.71v34.34h111.33v-34.34h-51.33c-1.93 0-3.8-.83-5.6-2.51Z" fill="#232c37"/>
        <path fill="#232c37" d="M594.57 2669.67v486.16h-68.68v-486.16h68.68z"/>
        <path d="M956.03 2739.43c4.82 0 9.34-.9 13.55-2.72 4.21-1.8 7.95-4.27 11.21-7.4 3.25-3.13 5.78-6.8 7.59-11.02 1.81-4.22 2.71-8.74 2.71-13.56s-.9-9.33-2.71-13.56a35.426 35.426 0 0 0-7.59-11.19c-3.25-3.26-6.99-5.78-11.21-7.6-4.22-1.8-8.74-2.71-13.55-2.71s-9.34.91-13.55 2.71c-4.22 1.82-7.9 4.34-11.02 7.6-3.13 3.24-5.6 6.99-7.41 11.19-1.81 4.23-2.71 8.74-2.71 13.56 0 9.64 3.37 17.83 10.12 24.58 6.74 6.75 14.94 10.12 24.58 10.12Z" fill="#232c37"/>
        <path d="M1033.56 2729.31a36.7 36.7 0 0 0 11.21 7.4c4.21 1.82 8.73 2.72 13.55 2.72 9.63 0 17.83-3.37 24.58-10.12 6.74-6.75 10.12-14.94 10.12-24.58 0-4.82-.9-9.33-2.71-13.56-1.81-4.21-4.28-7.95-7.41-11.19-3.13-3.26-6.81-5.78-11.02-7.6-4.22-1.8-8.74-2.71-13.55-2.71s-9.34.91-13.55 2.71a35.654 35.654 0 0 0-11.21 7.6 35.538 35.538 0 0 0-7.59 11.19c-1.81 4.23-2.71 8.74-2.71 13.56s.9 9.34 2.71 13.56c1.81 4.22 4.34 7.89 7.59 11.02Z" fill="#232c37"/>
        <path d="M1706.06 3044.86c0 5.78-1.14 11.27-3.42 16.44-2.28 5.19-5.46 9.71-9.54 13.56-4.07 3.86-8.81 6.93-14.21 9.22-5.4 2.29-11.11 3.43-17.1 3.43h-43.19v-281.94h-68.68v281.94h-87.47v-281.94h-68.68v281.94h-167.36v-281.94h-68.68v281.94H946.64c-12.53 0-24.28-2.35-35.24-7.04-10.97-4.71-20.55-11.15-28.74-19.34-8.19-8.19-14.64-17.77-19.34-28.74-4.7-10.95-7.05-22.71-7.05-35.24v-127.59h-68.68v127.59c0 21.93 4.16 42.53 12.47 61.81s19.7 36.09 34.16 50.43c14.46 14.34 31.32 25.65 50.6 33.98 19.28 8.3 39.88 12.46 61.81 12.46h714.97c15.66 0 30.36-2.89 44.1-8.67 13.74-5.78 25.72-13.67 35.97-23.68 10.24-9.99 18.31-21.74 24.22-35.24 5.9-13.49 8.86-27.95 8.86-43.37v-239.29h-68.68v239.29Z" fill="#232c37"/>
        <path d="M1911 3120.77c-.24 13.74-3.61 27.23-10.12 40.48-2.89 5.78-6.51 11.75-10.84 17.89-4.34 6.16-9.89 12.35-16.63 18.62-6.75 6.27-14.64 12.34-23.68 18.25-9.04 5.9-19.7 11.39-31.99 16.45l26.39 63.26c17.83-7.47 33.37-15.78 46.63-24.94 13.25-9.16 24.76-18.62 34.52-28.37 9.76-9.77 17.83-19.65 24.22-29.64 6.38-10.01 11.62-19.59 15.72-28.74 9.4-21.69 14.22-43.74 14.46-66.15v-312.3H1911v315.19Z" fill="#232c37"/>
        <path d="M2566.88 2853.62c-14.35-14.69-31.15-26.3-50.43-34.85s-39.76-12.83-61.45-12.83-42.47 4.27-61.63 12.82c-19.16 8.55-35.91 20.11-50.24 34.67-14.34 14.57-25.61 31.66-33.8 51.27-8.19 19.63-12.29 40.63-12.29 63.01v76.9c0 15.41 2.89 29.86 8.67 43.34 5.78 13.48 13.74 25.27 23.86 35.38 10.12 10.11 21.92 18.06 35.42 23.83 13.49 5.78 27.95 8.66 43.38 8.66h133.74c-2.41 9.64-6.32 18.56-11.75 26.75-5.41 8.19-11.92 15.3-19.52 21.33-7.58 6.02-16.08 10.72-25.48 14.1-9.4 3.37-19.28 5.06-29.64 5.06h-120c-13.01 0-25.18-2.48-36.51-7.41-11.33-4.95-21.27-11.63-29.82-20.07-8.55-8.43-15.24-18.31-20.06-29.64-4.82-11.33-7.23-23.5-7.23-36.51V2869.9h-68.68v259.53c0 22.41 4.28 43.43 12.83 63.08 8.55 19.63 20.12 36.74 34.7 51.33 14.58 14.57 31.75 26.13 51.51 34.7 19.75 8.54 40.84 12.83 63.26 12.83h120c21.69 0 42.1-4.15 61.27-12.45 19.15-8.31 35.84-19.57 50.06-33.78 14.22-14.21 25.48-30.94 33.8-50.2 8.3-19.27 12.46-39.73 12.46-61.4v-167.6c0-21.67-4.16-42.14-12.46-61.4-8.32-19.26-19.65-36.23-33.98-50.92Zm-21.88 233.9h-136.63c-5.78 0-11.27-1.14-16.45-3.43-5.19-2.29-9.7-5.37-13.55-9.22-3.86-3.86-6.93-8.37-9.22-13.56-2.29-5.17-3.43-10.78-3.43-16.8v-76.99c0-13.01 2.29-25.18 6.87-36.51 4.57-11.33 10.9-21.2 18.98-29.64 8.07-8.43 17.53-15.06 28.37-19.88 10.84-4.82 22.53-7.23 35.06-7.23s23.91 2.48 34.88 7.42c10.96 4.94 20.55 11.57 28.74 19.87 8.19 8.32 14.63 18.02 19.34 29.1 4.69 11.09 7.04 22.77 7.04 35.06v121.81Z" fill="#232c37"/>
        <path d="M2480.85 2729.31c3.24 3.13 6.98 5.61 11.19 7.4 4.22 1.82 8.74 2.72 13.56 2.72 9.64 0 17.83-3.37 24.58-10.12 6.75-6.75 10.12-14.94 10.12-24.58 0-4.82-.9-9.33-2.72-13.56-1.8-4.21-4.27-7.95-7.4-11.19-3.13-3.26-6.81-5.78-11.02-7.6-4.23-1.8-8.74-2.71-13.56-2.71s-9.34.91-13.56 2.71c-4.22 1.82-7.95 4.34-11.19 7.6-3.26 3.24-5.78 6.99-7.6 11.19-1.8 4.23-2.71 8.74-2.71 13.56s.91 9.34 2.71 13.56c1.82 4.22 4.34 7.89 7.6 11.02Z" fill="#232c37"/>
        <path d="M2378.55 2729.31a36.7 36.7 0 0 0 11.21 7.4c4.21 1.82 8.73 2.72 13.55 2.72s9.34-.9 13.55-2.72c4.21-1.8 7.95-4.27 11.21-7.4a33.39 33.39 0 0 0 7.58-11.02c1.82-4.22 2.72-8.74 2.72-13.56s-.9-9.33-2.72-13.56c-1.8-4.21-4.34-7.95-7.58-11.19-3.26-3.26-7-5.78-11.21-7.6-4.22-1.8-8.73-2.71-13.55-2.71s-9.34.91-13.55 2.71a35.654 35.654 0 0 0-11.21 7.6 35.538 35.538 0 0 0-7.59 11.19c-1.81 4.23-2.71 8.74-2.71 13.56s.9 9.34 2.71 13.56c1.81 4.22 4.34 7.89 7.59 11.02Z" fill="#232c37"/>
        <path d="M3082.31 2729.31c3.26 3.13 6.99 5.61 11.22 7.4 4.21 1.82 8.73 2.72 13.55 2.72 9.64 0 17.83-3.37 24.58-10.12 6.75-6.75 10.12-14.94 10.12-24.58 0-4.82-.91-9.33-2.71-13.56-1.82-4.21-4.28-7.95-7.42-11.19-3.13-3.26-6.81-5.78-11.03-7.6-4.22-1.8-8.73-2.71-13.55-2.71s-9.34.91-13.55 2.71a35.697 35.697 0 0 0-11.22 7.6 35.509 35.509 0 0 0-7.58 11.19c-1.82 4.23-2.72 8.74-2.72 13.56s.9 9.34 2.72 13.56a33.39 33.39 0 0 0 7.58 11.02Z" fill="#232c37"/>
        <path d="M3579.48 2899.82c-8.19-18.77-19.42-35.15-33.65-49.1-14.24-13.96-30.89-24.97-49.94-33.05-19.06-8.06-39.44-12.09-61.16-12.09s-41.73 3.98-60.79 11.92c-19.06 7.94-35.64 18.95-49.76 33.02-14.11 14.09-25.27 30.64-33.47 49.64-8.2 19.01-12.3 39.72-12.3 62.08v125.27h-109.52v-281.94h-68.68v281.94h-156.15v-119.13c0-26.23-4.43-49.45-13.26-69.67-8.85-20.21-22.7-37.24-41.57-51.08-18.87-13.83-43.12-24.3-72.76-31.41-29.64-7.1-65.42-10.65-107.35-10.65v68.32c29.64 0 54.94 2.05 75.91 6.15 20.96 4.1 38.13 10.19 51.51 18.26 13.36 8.07 23.19 17.95 29.45 29.64 6.27 11.69 9.4 25.12 9.4 40.3v119.28H2689.6v68.32h789.29c15.44 0 30.03-2.71 43.79-8.12 13.75-5.42 25.69-13.07 35.82-22.94 10.13-9.87 18.16-21.73 24.06-35.57 5.92-13.85 8.87-29.31 8.87-46.4v-82.69c.24-21.42-3.75-41.52-11.95-60.31Zm-56.73 142.87c0 6.75-1.15 12.89-3.43 18.43-2.29 5.54-5.41 10.24-9.38 14.1-3.97 3.86-8.65 6.87-14.06 9.04-5.41 2.17-11.13 3.25-17.14 3.25h-131.66v-125.43c0-12.53 2.28-24.15 6.85-34.88 4.58-10.72 10.82-20.07 18.76-28.02 7.93-7.95 17.25-14.15 27.95-18.62 10.7-4.45 22.07-6.68 34.09-6.68s23.75 2.23 34.45 6.68c10.7 4.47 20.09 10.55 28.14 18.26 8.05 7.71 14.37 16.81 18.94 27.28 4.57 10.49 6.74 21.75 6.5 33.8v82.77Z" fill="#232c37"/>
        <path d="M3409.8 2729.31c3.24 3.13 6.98 5.61 11.19 7.4 4.22 1.82 8.74 2.72 13.56 2.72 9.64 0 17.83-3.37 24.58-10.12 6.75-6.75 10.12-14.94 10.12-24.58 0-4.82-.9-9.33-2.72-13.56-1.8-4.21-4.27-7.95-7.4-11.19-3.13-3.26-6.81-5.78-11.02-7.6-4.23-1.8-8.74-2.71-13.56-2.71s-9.34.91-13.56 2.71c-4.22 1.82-7.95 4.34-11.19 7.6-3.26 3.24-5.78 6.99-7.6 11.19-1.8 4.23-2.71 8.74-2.71 13.56s.91 9.34 2.71 13.56c1.82 4.22 4.34 7.89 7.6 11.02Z" fill="#232c37"/>
        <path d="M330.31 3748.44c-2.17-25.18-3.59-40.19-4.26-45.03-1.67-15.84-5.85-28.68-12.52-38.52-8.85-13.51-21.78-21.93-38.81-25.27 13.68-4.67 25.12-11.44 34.3-20.29 17.36-16.86 26.04-39.08 26.04-66.63 0-35.91-14.27-62.71-42.81-80.42-16.52-10.35-39.64-15.53-69.35-15.53H61.68v352.75h46.57v-152.72h92.88c26.7 0 45.56 3.59 56.58 10.77 15.86 10.35 24.79 34.55 26.79 72.6 1.5 30.88 3.09 49.24 4.76 55.08 1.84 6.51 3.84 11.27 6.01 14.27h53.33l-4.51-5c-6.51-7.18-11.1-25.85-13.77-56.05Zm-86.87-132.73c-11.18 2.34-26.95 3.51-47.32 3.51h-87.87V3497.3h100.14c12.02 0 22.53.75 31.54 2.25 13.35 2.01 23.95 6.77 31.8 14.3 11.02 10.54 16.52 24.92 16.52 43.15 0 15.55-3.59 28.18-10.77 37.88-8.01 10.88-19.36 17.81-34.05 20.82Z" fill="#232c37"/>
        <path fill="#232c37" d="M463.75 3647.01h184.76v-37.55H463.75V3497.3h197.78v-40.56H417.18v352.75h246.85v-40.56H463.75v-121.92z"/>
        <path d="M909.13 3620.72c-11.18-3.84-30.04-8.6-56.58-14.27-38.89-8.35-64.59-16.19-77.11-23.53-12.52-7.18-18.78-19.19-18.78-36.05 0-20.7 8.76-36.3 26.29-46.82 13.18-7.84 30.88-11.77 53.08-11.77 30.71 0 53.49 7.59 68.35 22.78 10.68 11.02 17.36 27.37 20.03 49.07h44.81c-.84-23.7-6.18-43.39-16.02-59.08-22.03-34.88-60.92-52.32-116.67-52.32-37.55 0-67.26 8.6-89.13 25.79-23.7 18.69-35.55 43.81-35.55 75.36 0 21.03 5.59 38.47 16.77 52.32 10.01 12.18 25.62 21.86 46.82 29.04 6.51 2.17 26.12 7.09 58.83 14.77 21.86 5.17 35.8 8.6 41.81 10.26 21.53 6.34 37.05 14.02 46.57 23.03 9.01 8.51 13.52 20.03 13.52 34.55 0 18.69-7.35 34.05-22.03 46.07-14.52 12.02-36.22 18.03-65.09 18.03-39.22 0-68.01-10.51-86.37-31.54-11.35-12.85-17.27-30.63-17.78-53.33h-45.06c.5 48.74 19.36 83.37 56.58 103.9 24.7 13.69 54.49 20.53 89.38 20.53 42.22 0 74.77-8.93 97.64-26.79 26.37-20.36 39.56-47.15 39.56-80.36 0-19.69-5.67-36.97-17.02-51.82-12.68-16.52-31.63-29.12-56.83-37.8Z" fill="#232c37"/>
        <path fill="#232c37" d="M1013.03 3497.3h118.41v312.19h46.57V3497.3h118.67v-40.56h-283.65v40.56z"/>
        <path fill="#232c37" d="M1473.93 3456.74v352.75h-46.57v-352.75h46.57z"/>
        <path d="M1793.88 3633.24c0 33.71 1.08 73.94 3.25 120.67-12.52-23.7-32.13-55.83-58.83-96.39l-131.69-200.78h-50.57v352.75h44.56v-178.25l-.25-32.8c-.5-38.72-1.5-66.84-3-84.37 10.68 22.03 31.96 57.16 63.84 105.4l125.68 190.02h51.32v-352.75h-44.31v176.5Z" fill="#232c37"/>
        <path fill="#232c37" d="M2234.51 3603.7h-186.27v-146.96h-46.56v352.75h46.56v-165.24h186.27v165.24h46.56v-352.75h-46.56v146.96z"/>
        <path d="M2517.66 3448.73c-51.07 0-92.88 16.94-125.43 50.82-30.88 32.38-46.32 77.03-46.32 133.94 0 48.24 11.93 88.38 35.8 120.42 31.54 42.39 75.77 63.59 132.69 63.59s101.31-21.03 132.69-63.09c24.2-32.38 36.3-73.02 36.3-121.92 0-54.91-15.52-99.22-46.57-132.94-31.21-33.88-70.93-50.82-119.17-50.82Zm79.61 296.42c-21.36 21.86-48.65 32.8-81.87 32.8-16.69 0-32.55-3.17-47.57-9.51-18.53-7.84-33.8-19.53-45.81-35.05-19.53-25.04-29.29-58.75-29.29-101.14 0-45.23 11.6-80.7 34.8-106.4 22.7-25.04 52.32-37.55 88.88-37.55s64.17 13.1 86.37 39.31c22.53 26.54 33.8 61.67 33.8 105.4 0 48.07-13.1 85.45-39.31 112.16Z" fill="#232c37"/>
        <path fill="#232c37" d="M2715.44 3497.3h118.42v312.19h46.56V3497.3h118.67v-40.56h-283.65v40.56z"/>
        <path fill="#232c37" d="M3094.98 3647.01h184.76v-37.55h-184.76V3497.3h197.78v-40.56h-244.35v352.75h246.85v-40.56h-200.28v-121.92z"/>
        <path fill="#232c37" d="M3404.92 3768.93v-312.19h-46.57v352.75h233.83v-40.56h-187.26z"/>
        <path d="M64.21 1171.17c40.62.99 77.17 2.1 116.71 4.53 37.21 2.28 77.97 5.53 107.71-20.12 30.47-26.28 59.46-54.23 87.64-82.93 47.06-47.94 91.92-97.95 138.06-146.76L406.86 818.42c-5.41 5.65-10.83 11.31-16.26 16.97-101.75 105.92-211.42 203.6-311.43 311.12-2.43 2.61-22.7 24.48-14.95 24.67Z" fill="url(#c687aefc-3a17-4329-b99c-dcf5c07245e8)"/>
        <path d="M654.6 805.68c6.83-5.54 13.76-10.95 20.77-16.25 36.92-27.89 76.35-52.59 117.9-72.98 41.56-20.4 85.4-36.55 130.75-46.13 42.51-8.98 86.55-12.06 129.77-7.03 25.63 2.99 50.91 9 75.16 17.82 12.12 4.41 23.99 9.53 35.51 15.34 5.76 2.9 11.42 6 17.02 9.21 2.29 1.32 3.89 1.63 5.18 1.26 2.15-.63 3.44-3.18 5.66-6.21 29.82-40.67 64.23-79.4 106.64-107.3 3.3-2.17 6.76-4.36 8.96-7.65 4.46-6.66.35-13.12-6.45-15.5-69.42-24.27-139.35-48.66-212.11-59.28-109.21-15.93-222.24.17-324.65 41.32-109.92 44.17-195.9 115.77-276.87 195.64l108.52 108.52c18.88-17.53 38.22-34.56 58.24-50.78Z" fill="url(#9cf22a62-822d-4d9d-bd57-c22440486817)"/>
        <path d="M3293.66 1077.5c28.18 28.71 57.17 56.65 87.64 82.94 29.74 25.65 70.5 22.4 107.71 20.12 39.54-2.42 76.09-3.54 116.71-4.53 7.75-.19-12.52-22.06-14.95-24.67-100.02-107.52-209.68-205.2-311.43-311.12-13.39-13.94-26.68-27.84-39.98-41.69l-107.38 107.38c54.64 56.48 106.62 115.49 161.68 171.58Z" fill="url(#f27fc5cd-f60e-4260-a763-6197d2b55523)"/>
        <path d="M920.39 1149.78h121.53l134.7-134.7 142.27-142.27 80.73-80.73 103 103 254.7 254.7h147.58l4.73-4.73 365.27-365.27 370 370h99.33c8.61-2.76 16.45-6.4 21.77-11.2 1.39-1.25 2.6-2.58 3.61-4-25.31-34.19-58.71-64.56-87.54-95.94-14.88-16.19-29.75-32.39-44.63-48.58l-396.77-409.98c-3.82-2.9-7.66-6.14-11.62-10.14-9.05-9.13-17.59-18.89-26.01-28.75l-346.5-358.04c-8.21-4.33-17.74-.83-36.48 18.24L898.8 1138.82c6.98 4.31 14.22 7.81 21.57 10.95Zm923.03-801.49 354.14 354.14-365.27 365.27-354.14-354.14 365.27-365.27Z" fill="url(#90b575d7-c2ea-4172-9fbe-cde6969d2ae7)"/>
        <path d="M1136.57 1730.34c.34-.18-.02-.01 0 0Z" fill="url(#6015a8d0-6d58-4391-9fe5-23a07e4b3f98)"/>
        <path d="M1298.93 1678.24c-1.2.57-20.62 11.75-96.62 47.32-33.72 15.78-39.06 17.8-39.11 17.76-.16.09-8.85 3-16.68 6.55-11.62 5.27-21.33 7.86-33.95 10.49-24.95 5.2-39.52 7.87-64.82 10.86-42.66 5.03-85.96-10.78-127.91-19.75-44.76-9.57-88.02-25.73-129.04-46.13-41.01-20.4-79.92-45.09-116.36-72.98-6.92-5.3-13.76-10.72-20.5-16.25-41.74-34.26-80.64-71.93-118.06-110.93-55.47-57.8-107.97-118.46-163.72-176-27.81-28.71-56.42-56.65-86.49-82.94-29.35-25.65-69.57-22.4-106.3-20.12-39.02 2.42-75.09 3.54-115.18 4.53-7.65.19 12.35 22.06 14.75 24.67 98.71 107.52 206.94 205.2 307.35 311.12 113.55 119.78 225.79 224.71 381.49 288.11 101.06 41.15 217.66 66.17 324.65 45.47 71.94-13.92 130.82-35.52 195.98-64.38 35.3-15.63 74.74-42.53 108.65-71.06l-89.58-91.54c-3.37 2.26-6.4 4.18-8.54 5.2Z" fill="url(#2fd09549-e85e-48d8-acd3-29855a2d084a)"/>
        <path d="M2746.83 1242.16h-114.68l-136.7 136.7-142.27 142.27-80.73 80.73-103-103-256.7-256.7h-143.57l-6.74 6.74-365.27 365.27-60.55-60.55-293.59-293.59-17.87-17.87h-90.18c-13.55 3.52-26.44 8.85-32.43 17.1l388.35 396.85 16.57 16.93 89.58 91.54 3.11 3.18 431.75 441.19c4.71-2.09 10.87-7.03 20.08-16.41l921.26-937.43c-8.51-5.26-17.37-9.43-26.42-12.96Zm-918.18 803.51-354.14-354.14 365.27-365.27 354.14 354.14-365.27 365.27Z" fill="url(#3eacdf0e-9295-4ace-a2eb-479794bad9de)"/>
        <path d="M3617.63 1250.22c-40.54-2.77-77-5.49-116.4-9.64-37.07-3.91-77.65-8.95-108.49 15.37-31.59 24.92-61.78 51.57-91.19 79.01-58.96 55-114.76 113.27-173.45 168.55-39.6 37.3-80.63 73.2-124.38 105.57a788.85 788.85 0 0 1-21.47 15.33c-38.11 26.24-78.58 49.19-120.99 67.74-42.42 18.56-86.92 32.77-132.65 40.35-42.86 7.1-86.99 8.26-129.96 1.33a332.483 332.483 0 0 1-74.3-21.1 330.305 330.305 0 0 1-34.81-16.88c-5.37-3.01-10.62-6.2-15.83-9.49l-128.42 128.42c.63.36 1.14.85 1.84 1.13 68.29 27.29 137.08 54.73 209.3 68.52 108.4 20.71 222.04 9.58 326.15-27.04 160.39-56.41 274.03-171.41 394.24-286.02 106.3-101.36 220.14-194.13 324.78-297.16 2.54-2.5 23.75-23.46 16.01-23.99Z" fill="url(#d11bc0bb-ddff-4be8-955c-41c387e88ed6)"/>
        <path d="m2437.96 644.87 43.7 45.45c5.47-3.13 10.98-6.16 16.61-8.99a331.73 331.73 0 0 1 35.51-15.34 332.556 332.556 0 0 1 75.16-17.82c43.22-5.03 87.26-1.94 129.77 7.03 45.35 9.57 89.19 25.73 130.75 46.13 41.55 20.4 80.98 45.09 117.9 72.98 7.02 5.3 13.94 10.72 20.77 16.25 11.14 9.02 21.99 18.37 32.74 27.84l109.34-109.34c-73.9-70.16-153.33-132.16-252.19-171.88-102.4-41.15-215.44-57.25-324.65-41.32-72.76 10.61-142.69 35.01-212.11 59.28-2.41.84-4.26 2.32-5.73 4.02l51.09 53.13c11.02 10.26 21.42 21.2 31.33 32.58Z" fill="url(#ea740297-44b3-4ed0-ac07-73204f8ac629)"/>
    </g>
</svg>
