<?xml version="1.0" encoding="UTF-8"?>
<svg data-bbox="418.88 96.51 2843.24 3805.991" viewBox="0 0 3681 3999" xmlns="http://www.w3.org/2000/svg" data-type="color">
    <g>
        <path fill="#eabf80" d="M3135.52 1454.83c0 750.18-608.14 1358.32-1358.32 1358.32S418.88 2205.01 418.88 1454.83 1027.02 96.51 1777.2 96.51s1358.32 608.14 1358.32 1358.32z" data-color="1"/>
        <path d="M3048.32 1454.83c-369.38 124.35-394.62 242.81-99.89 494.17-385.99-35.86-452.01 61.18-272.41 403.54-342.78-179.38-439.94-113.44-404.04 272.08-251.66-294.37-370.27-269.16-494.77 99.77-124.5-368.93-243.11-394.13-494.78-99.77 35.9-385.51-61.26-451.46-404.04-272.08 179.6-342.36 113.57-439.4-272.41-403.54 294.73-251.35 269.49-369.82-99.89-494.17 369.38-124.35 394.62-242.82 99.89-494.17 385.99 35.86 452.01-61.18 272.41-403.54 342.78 179.38 439.94 113.44 404.04-272.08 251.66 294.37 370.27 269.16 494.78-99.77 124.5 368.93 243.11 394.13 494.77 99.77-35.9 385.51 61.26 451.46 404.04 272.08-179.6 342.36-113.57 439.4 272.41 403.54-294.73 251.35-269.49 369.82 99.89 494.17Z" fill="#003749" data-color="2"/>
        <path fill="#eabf80" d="M2406.44 1431.72c0 348.116-281.72 630.32-629.24 630.32s-629.24-282.204-629.24-630.32c0-348.116 281.72-630.32 629.24-630.32s629.24 282.204 629.24 630.32z" data-color="1"/>
        <path d="M2049.26 1053.25c-1.29 69.37.93 139.63-4.65 208.8 1.08-13.43-15.31-32.6-22.86-42.95-11.56-15.85-25.51-29.94-41.11-41.83-79.46-60.56-189.5-55.61-282.54-36.78-22.1 4.47-45.01 10.58-55.35 32.7-6.07 12.97-7.05 27.79-5.93 42.06 1.04 13.25 3.97 26.72 11.42 37.73 10.29 15.22 27.99 23.91 45.78 28.55 64.27 16.74 131.18 11.76 196.57 19.6 41.03 4.92 82.53 15.73 115.74 40.31 46.38 34.32 67.19 90.31 66.7 146.65-.41 46.8-14.1 92.52-31.23 136.09-3.15 8-7.2 16.77-15.24 19.85.27-70.11-19.24-144.25-71.2-191.38-46.12-41.83-110.33-56.39-171.86-66.1-61.53-9.71-125.49-16.75-179.45-47.84-19.48-11.22-37.82-26.13-47.46-46.42-6.77-14.26-8.83-30.24-10.28-45.96-4.67-50.83-1.17-108.53 36.52-143.01 21.1-19.31 50.94-29.08 77.35-38.79a662.593 662.593 0 0 1 88.64-25.74c60.2-13.04 122.2-17.77 183.68-13.9 40.36 2.54 86.38 4.05 119.8 29.26" fill="#003749" data-color="2"/>
        <path d="M1440.47 1759.94c1.29-69.37-.93-139.63 4.65-208.8-1.08 13.43 15.31 32.6 22.86 42.95 11.56 15.85 25.51 29.94 41.11 41.83 79.46 60.56 189.5 55.61 282.54 36.78 22.1-4.47 45.01-10.58 55.35-32.7 6.07-12.97 7.05-27.79 5.93-42.06-1.04-13.25-3.97-26.72-11.42-37.73-10.29-15.22-27.99-23.91-45.78-28.55-64.27-16.74-131.18-11.76-196.57-19.59-41.03-4.92-82.53-15.73-115.74-40.31-46.38-34.32-67.19-90.31-66.7-146.65.41-46.8 14.1-92.52 31.23-136.09 3.15-8 7.2-16.77 15.24-19.85-.27 70.11 19.24 144.25 71.2 191.38 46.12 41.83 110.33 56.39 171.86 66.1 61.53 9.71 125.49 16.75 179.45 47.84 19.48 11.22 37.82 26.13 47.46 46.42 6.77 14.26 8.83 30.24 10.28 45.96 4.67 50.83 1.17 108.53-36.52 143.01-21.1 19.31-50.94 29.08-77.35 38.79a662.593 662.593 0 0 1-88.64 25.74c-60.2 13.04-122.2 17.77-183.68 13.9-40.36-2.54-86.38-4.05-119.8-29.26" fill="#003749" data-color="2"/>
        <path d="M1750.14 3000.61c2.6 2.64 5.66 4.69 9.17 6.15 3.51 1.47 7.27 2.2 11.28 2.2s7.76-.73 11.27-2.2c3.51-1.46 6.61-3.52 9.32-6.15a28.9 28.9 0 0 0 6.32-9.08c1.5-3.42 2.26-7.08 2.26-10.99s-.75-7.57-2.26-10.99a28.674 28.674 0 0 0-6.32-9.08c-2.7-2.64-5.81-4.69-9.32-6.15-3.51-1.47-7.27-2.2-11.27-2.2s-7.77.73-11.28 2.2c-3.5 1.47-6.56 3.52-9.17 6.15a29.96 29.96 0 0 0-6.16 9.08c-1.51 3.42-2.26 7.08-2.26 10.99s.75 7.57 2.26 10.99c1.5 3.42 3.55 6.45 6.16 9.08Z" fill="#003749" data-color="2"/>
        <path d="M1707.77 3060.54c2.69 2.54 5.78 4.54 9.27 6.01 3.49 1.46 7.23 2.2 11.22 2.2s7.73-.73 11.22-2.2c3.49-1.47 6.58-3.47 9.27-6.01 2.69-2.54 4.79-5.52 6.28-8.94 1.5-3.42 2.24-7.08 2.24-10.99s-.75-7.57-2.24-10.99c-1.5-3.42-3.59-6.45-6.28-9.08a29.205 29.205 0 0 0-9.27-6.15c-3.49-1.46-7.23-2.2-11.22-2.2s-7.73.73-11.22 2.2a29.544 29.544 0 0 0-9.27 6.15 28.943 28.943 0 0 0-6.28 9.08c-1.5 3.42-2.24 7.08-2.24 10.99s.75 7.57 2.24 10.99c1.5 3.42 3.59 6.4 6.28 8.94Z" fill="#003749" data-color="2"/>
        <path d="M1786.44 3029.63c-1.5 3.42-2.24 7.08-2.24 10.99s.75 7.57 2.24 10.99c1.5 3.42 3.59 6.4 6.28 8.94 2.69 2.54 5.78 4.54 9.27 6.01 3.49 1.46 7.23 2.2 11.22 2.2 7.98 0 14.76-2.73 20.34-8.21 5.58-5.47 8.37-12.11 8.37-19.93 0-3.91-.75-7.57-2.24-10.99-1.5-3.42-3.54-6.45-6.13-9.08-2.59-2.64-5.63-4.69-9.12-6.15-3.49-1.46-7.23-2.2-11.22-2.2s-7.73.73-11.22 2.2a29.544 29.544 0 0 0-9.27 6.15c-2.69 2.64-4.79 5.67-6.28 9.08Z" fill="#003749" data-color="2"/>
        <path d="M1871.83 3316.38c0 4.69-.95 9.13-2.83 13.33a33.75 33.75 0 0 1-7.89 10.99c-3.38 3.13-7.3 5.62-11.76 7.47-4.47 1.86-9.19 2.78-14.15 2.78h-35.74v-228.58h-56.83v228.58h-72.39v-228.58h-56.83v228.58h-143.57c1.6-5.46 2.89-11.12 3.89-16.97s1.4-11.9 1.2-18.14v-63.81c0-17.17-3.4-33.55-10.18-49.16-6.79-15.62-16.12-29.37-28-41.27-11.88-11.91-25.7-21.37-41.47-28.39s-32.54-10.54-50.31-10.54-34.54 3.42-50.31 10.24c-15.77 6.83-29.49 16.09-41.17 27.8-11.68 11.71-20.92 25.42-27.7 41.12-6.79 15.7-10.18 32.43-10.18 50.18v63.23c0 6.24.4 12.33 1.2 18.29.8 5.95 1.99 11.75 3.59 17.41h-94.82v-228.58h-56.83v228.58h-72.39v-228.58h-56.83v228.58h-72.39v-228.58h-56.83v265.8c0 12.11-2.64 22.71-7.93 31.8-5.29 9.08-12.21 16.65-20.79 22.71-8.57 6.06-18.4 10.6-29.46 13.63-11.07 3.03-22.28 4.54-33.65 4.54s-22.88-1.51-33.95-4.54c-11.07-3.03-20.89-7.57-29.46-13.63-8.58-6.06-15.5-13.63-20.79-22.71-5.28-9.08-7.93-19.68-7.93-31.8v-213.93h-56.83v213.93c0 21.49 4.24 40.2 12.71 56.12 8.47 15.92 19.69 29.26 33.65 40 13.96 10.74 29.86 18.75 47.71 24.03 17.85 5.27 36.14 7.91 54.89 7.91 17.15 0 34-2.3 50.55-6.89 16.55-4.59 31.56-11.48 45.02-20.66 13.46-9.18 24.83-20.66 34.1-34.43 9.27-13.77 15.11-29.74 17.5-47.91H1253c11.96 12.31 25.77 21.88 41.43 28.72 15.65 6.84 32.55 10.26 50.7 10.26s34.85-3.52 50.7-10.55c15.85-7.03 29.76-16.51 41.73-28.43h397.52c12.96 0 25.13-2.34 36.49-7.03 11.37-4.69 21.29-11.09 29.76-19.19 8.47-8.11 15.15-17.63 20.04-28.57 4.89-10.94 7.33-22.66 7.33-35.17v-194h-56.83v194Zm-453.75-.4c0 9.98-1.89 19.46-5.68 28.46s-9.02 16.87-15.7 23.61c-6.68 6.75-14.46 12.09-23.33 16-8.87 3.92-18.3 5.87-28.27 5.87s-19.39-1.95-28.27-5.87c-8.87-3.91-16.6-9.24-23.18-16-6.58-6.74-11.76-14.62-15.55-23.61-3.79-9-5.68-18.68-5.68-29.06V3252c0-10.17 1.9-19.76 5.68-28.76 3.79-9 8.97-16.81 15.55-23.47 6.58-6.65 14.31-11.94 23.18-15.85 8.87-3.92 18.3-5.87 28.27-5.87s19.39 2 28.27 6.02c8.87 4.01 16.65 9.39 23.33 16.14 6.68 6.74 11.92 14.57 15.7 23.47 3.79 8.9 5.68 18.35 5.68 28.32v63.98Z" fill="#003749" data-color="2"/>
        <path d="M2258.44 3060.54c2.69 2.54 5.78 4.54 9.27 6.01 3.49 1.46 7.23 2.2 11.22 2.2s7.73-.73 11.22-2.2c3.49-1.47 6.58-3.47 9.27-6.01 2.69-2.54 4.79-5.52 6.28-8.94 1.49-3.42 2.24-7.08 2.24-10.99s-.75-7.57-2.24-10.99c-1.5-3.42-3.59-6.45-6.28-9.08a29.205 29.205 0 0 0-9.27-6.15c-3.49-1.46-7.23-2.2-11.22-2.2s-7.73.73-11.22 2.2a29.544 29.544 0 0 0-9.27 6.15c-2.69 2.64-4.79 5.67-6.28 9.08-1.49 3.42-2.24 7.08-2.24 10.99s.75 7.57 2.24 10.99c1.5 3.42 3.59 6.4 6.28 8.94Z" fill="#003749" data-color="2"/>
        <path d="M2343.09 3060.54c2.69 2.54 5.78 4.54 9.27 6.01 3.49 1.46 7.23 2.2 11.22 2.2 7.98 0 14.76-2.73 20.34-8.21 5.58-5.47 8.37-12.11 8.37-19.93 0-3.91-.75-7.57-2.24-10.99-1.5-3.42-3.54-6.45-6.13-9.08-2.59-2.64-5.63-4.69-9.12-6.15-3.49-1.46-7.23-2.2-11.22-2.2s-7.73.73-11.22 2.2a29.544 29.544 0 0 0-9.27 6.15c-2.69 2.64-4.79 5.67-6.28 9.08-1.49 3.42-2.24 7.08-2.24 10.99s.75 7.57 2.24 10.99c1.5 3.42 3.59 6.4 6.28 8.94Z" fill="#003749" data-color="2"/>
        <path d="M2414.28 3161.33c-11.87-11.9-25.77-21.33-41.73-28.25-15.95-6.94-32.9-10.4-50.85-10.4s-35.15 3.47-51 10.39c-15.85 6.94-29.71 16.3-41.58 28.11-11.86 11.81-21.19 25.65-27.97 41.56-6.78 15.91-10.17 32.94-10.17 51.09v62.36c0 12.48 2.39 24.2 7.18 35.13 4.79 10.93 11.37 20.49 19.74 28.68 8.37 8.21 18.15 14.64 29.31 19.33 11.17 4.68 23.13 7.02 35.89 7.02h110.67a69.075 69.075 0 0 1-9.72 21.69c-4.49 6.64-9.87 12.41-16.15 17.29-6.28 4.88-13.31 8.69-21.09 11.43-7.78 2.74-15.95 4.1-24.53 4.1h-99.31c-10.77 0-20.84-2-30.21-6.01-9.37-4.01-17.6-9.43-24.68-16.26-7.08-6.84-12.61-14.85-16.6-24.03-3.99-9.18-5.98-19.05-5.98-29.6v-210.41h-56.83v210.41c0 18.17 3.54 35.21 10.62 51.14 7.08 15.92 16.65 29.79 28.71 41.61 12.06 11.82 26.27 21.2 42.62 28.13 16.35 6.94 33.8 10.4 52.35 10.4h99.31c17.95 0 34.85-3.37 50.7-10.1 15.85-6.74 29.66-15.87 41.43-27.39 11.76-11.51 21.09-25.08 27.97-40.7 6.88-15.62 10.32-32.21 10.32-49.78v-135.88c0-17.57-3.44-34.16-10.32-49.78-6.88-15.62-16.25-29.38-28.12-41.28Zm-18.1 189.63h-113.07c-4.79 0-9.32-.93-13.61-2.78-4.29-1.86-8.03-4.35-11.22-7.47-3.19-3.13-5.73-6.79-7.63-10.99-1.9-4.2-2.84-8.74-2.84-13.63v-62.42c0-10.55 1.9-20.42 5.68-29.6 3.79-9.18 9.02-17.19 15.7-24.03s14.51-12.21 23.48-16.12 18.64-5.86 29.01-5.86 19.79 2 28.86 6.01 17 9.38 23.78 16.12c6.78 6.74 12.11 14.6 16 23.59 3.89 8.99 5.83 18.46 5.83 28.43v98.76Z" fill="#003749" data-color="2"/>
        <path d="M2840.81 3060.54c2.69 2.54 5.78 4.54 9.27 6.01 3.49 1.46 7.23 2.2 11.22 2.2 7.98 0 14.76-2.73 20.34-8.21 5.58-5.47 8.37-12.11 8.37-19.93 0-3.91-.75-7.57-2.24-10.99a29.808 29.808 0 0 0-6.13-9.08c-2.59-2.64-5.63-4.69-9.12-6.15-3.49-1.46-7.23-2.2-11.22-2.2s-7.73.73-11.22 2.2a29.544 29.544 0 0 0-9.27 6.15c-2.69 2.64-4.79 5.67-6.28 9.08-1.49 3.42-2.24 7.08-2.24 10.99s.75 7.57 2.24 10.99c1.5 3.42 3.59 6.4 6.28 8.94Z" fill="#003749" data-color="2"/>
        <path d="M3111.81 3060.54c2.69 2.54 5.78 4.54 9.27 6.01 3.49 1.46 7.23 2.2 11.22 2.2 7.98 0 14.76-2.73 20.34-8.21 5.58-5.47 8.38-12.11 8.38-19.93 0-3.91-.75-7.57-2.24-10.99-1.5-3.42-3.54-6.45-6.13-9.08-2.59-2.64-5.63-4.69-9.12-6.15-3.49-1.46-7.23-2.2-11.22-2.2s-7.73.73-11.22 2.2a29.544 29.544 0 0 0-9.27 6.15c-2.69 2.64-4.79 5.67-6.28 9.08-1.5 3.42-2.24 7.08-2.24 10.99s.75 7.57 2.24 10.99c1.5 3.42 3.59 6.4 6.28 8.94Z" fill="#003749" data-color="2"/>
        <path d="M3252.23 3198.79c-6.79-15.23-16.08-28.5-27.86-39.82-11.78-11.32-25.55-20.24-41.32-26.79-15.77-6.53-32.64-9.81-50.61-9.81s-34.54 3.22-50.31 9.66c-15.77 6.43-29.49 15.37-41.17 26.78-11.68 11.42-20.92 24.84-27.7 40.25-6.79 15.41-10.18 32.2-10.18 50.33v101.57h-90.63v-228.58h-56.83v228.58H2726.4v-96.58c0-21.26-3.66-40.09-10.98-56.49-7.32-16.39-18.78-30.2-34.4-41.41-15.62-11.22-35.68-19.71-60.21-25.47-24.53-5.75-54.14-8.63-88.84-8.63v55.39c24.53 0 45.46 1.66 62.81 4.98 17.35 3.32 31.56 8.25 42.62 14.8 11.07 6.54 19.19 14.55 24.38 24.03 5.19 9.47 7.78 20.37 7.78 32.67v96.71h-153.74v55.39h653.16c12.77 0 24.85-2.2 36.24-6.58 11.37-4.4 21.26-10.59 29.64-18.6 8.38-8 15.02-17.61 19.91-28.84 4.89-11.21 7.34-23.75 7.34-37.61v-67.04c.2-17.38-3.1-33.68-9.88-48.89Zm-46.95 115.83c0 5.47-.95 10.45-2.84 14.95-1.89 4.49-4.48 8.3-7.76 11.43-3.28 3.13-7.16 5.57-11.63 7.33-4.48 1.76-9.21 2.64-14.18 2.64h-108.95v-101.69c0-10.16 1.89-19.59 5.67-28.28 3.78-8.69 8.95-16.26 15.52-22.71 6.57-6.45 14.28-11.48 23.14-15.09 8.85-3.61 18.26-5.42 28.21-5.42s19.65 1.81 28.5 5.42c8.86 3.61 16.62 8.55 23.29 14.8 6.66 6.25 11.89 13.63 15.67 22.13 3.78 8.5 5.57 17.63 5.37 27.4v67.11Z" fill="#003749" data-color="2"/>
        <path d="M731.95 3752.85c-8.68-2.92-23.32-6.54-43.92-10.85-30.19-6.35-50.14-12.31-59.85-17.9-9.72-5.46-14.57-14.6-14.57-27.42 0-15.74 6.8-27.61 20.4-35.6 10.23-5.97 23.97-8.95 41.2-8.95 23.84 0 41.52 5.78 53.05 17.33 8.29 8.38 13.47 20.82 15.55 37.32h34.78c-.65-18.02-4.79-33-12.44-44.93-17.1-26.53-47.29-39.79-90.56-39.79-29.15 0-52.21 6.54-69.18 19.61-18.4 14.22-27.59 33.32-27.59 57.31 0 15.99 4.34 29.26 13.02 39.79 7.77 9.27 19.89 16.63 36.34 22.08 5.05 1.65 20.27 5.39 45.67 11.23 16.97 3.94 27.79 6.54 32.45 7.81 16.71 4.82 28.76 10.66 36.14 17.52 7 6.47 10.49 15.23 10.49 26.27 0 14.22-5.7 25.89-17.1 35.03-11.27 9.14-28.11 13.71-50.53 13.71-30.44 0-52.79-8-67.04-23.99-8.81-9.77-13.41-23.29-13.8-40.55h-34.98c.39 37.06 15.03 63.4 43.92 79.01 19.17 10.41 42.3 15.61 69.37 15.61 32.78 0 58.04-6.79 75.79-20.37 20.47-15.48 30.7-35.86 30.7-61.11 0-14.98-4.41-28.11-13.22-39.41-9.85-12.57-24.55-22.15-44.11-28.75Z" fill="#003749" data-color="2"/>
        <path fill="#003749" d="M1018.78 3739.9H874.2v-111.76h-36.14v268.26h36.14v-125.66h144.58v125.66h36.15v-268.26h-36.15v111.76z" data-color="2"/>
        <path d="m1196.98 3627-107.46 269.4h38.09l31.29-82.44h115.04l30.51 82.44h40.23L1237.6 3627h-40.61Zm-27.59 158.4 27.59-72.84c8.81-22.88 15.42-40.49 19.82-52.82 3.76 11.82 10.23 29.94 19.43 54.34l27.01 71.32h-93.86Z" fill="#003749" data-color="2"/>
        <path d="M1541.53 3792.26c-9.85 26.65-17.81 49.12-23.9 67.4-5.05-16.37-13.28-39.03-24.68-67.97l-64.13-163.54h-49.36v268.26h34.78l-.58-121.47c-.13-38.71-1.43-77.24-3.89-115.57 5.96 20.31 13.86 42.77 23.71 67.4l68.4 169.64h31.48l65.1-171.73 8.55-22.28 12.44-34.84 3.89-10.66c-2.72 34.78-4.15 74.51-4.28 119.18l-.58 120.33h34.79v-268.26h-50.14l-61.6 164.12Z" fill="#003749" data-color="2"/>
        <path d="M1858.28 3752.85c-8.68-2.92-23.32-6.54-43.92-10.85-30.19-6.35-50.14-12.31-59.85-17.9-9.72-5.46-14.57-14.6-14.57-27.42 0-15.74 6.8-27.61 20.4-35.6 10.23-5.97 23.97-8.95 41.2-8.95 23.84 0 41.52 5.78 53.05 17.33 8.29 8.38 13.47 20.82 15.55 37.32h34.78c-.65-18.02-4.79-33-12.44-44.93-17.1-26.53-47.29-39.79-90.56-39.79-29.15 0-52.21 6.54-69.18 19.61-18.4 14.22-27.6 33.32-27.6 57.31 0 15.99 4.34 29.26 13.02 39.79 7.77 9.27 19.89 16.63 36.34 22.08 5.05 1.65 20.27 5.39 45.67 11.23 16.97 3.94 27.79 6.54 32.45 7.81 16.71 4.82 28.76 10.66 36.14 17.52 7 6.47 10.49 15.23 10.49 26.27 0 14.22-5.7 25.89-17.1 35.03-11.27 9.14-28.11 13.71-50.53 13.71-30.44 0-52.79-8-67.04-23.99-8.81-9.77-13.41-23.29-13.8-40.55h-34.98c.39 37.06 15.03 63.4 43.92 79.01 19.17 10.41 42.3 15.61 69.38 15.61 32.78 0 58.04-6.79 75.79-20.37 20.47-15.48 30.7-35.86 30.7-61.11 0-14.98-4.41-28.11-13.22-39.41-9.85-12.57-24.55-22.15-44.11-28.75Z" fill="#003749" data-color="2"/>
        <path fill="#003749" d="M2208.27 3739.9h-144.58v-111.76h-36.14v268.26h36.14v-125.66h144.58v125.66h36.15v-268.26h-36.15v111.76z" data-color="2"/>
        <path d="M2428.06 3622.05c-39.64 0-72.1 12.88-97.36 38.65-23.97 24.62-35.95 58.58-35.95 101.86 0 36.68 9.26 67.21 27.79 91.58 24.49 32.24 58.82 48.36 102.99 48.36s78.64-15.99 102.99-47.98c18.79-24.62 28.18-55.53 28.18-92.72 0-41.76-12.05-75.46-36.14-101.1-24.23-25.77-55.06-38.65-92.5-38.65Zm61.8 225.42c-16.58 16.63-37.77 24.94-63.55 24.94-12.96 0-25.26-2.41-36.92-7.23-14.38-5.97-26.23-14.85-35.56-26.65-15.16-19.04-22.74-44.68-22.74-76.92 0-34.4 9-61.37 27.01-80.92 17.62-19.04 40.62-28.56 68.99-28.56s49.81 9.96 67.04 29.89c17.49 20.18 26.23 46.9 26.23 80.15 0 36.55-10.17 64.99-30.51 85.29Z" fill="#003749" data-color="2"/>
        <path fill="#003749" d="M2581.58 3658.98h91.92v237.42h36.14v-237.42h92.11v-30.84h-220.17v30.84z" data-color="2"/>
        <path fill="#003749" d="M2876.18 3772.84h143.42v-28.56h-143.42v-85.3h153.52v-30.84h-189.66v268.26h191.61v-30.84h-155.47v-92.72z" data-color="2"/>
        <path fill="#003749" d="M3116.76 3865.56v-237.42h-36.14v268.26h181.5v-30.84h-145.36z" data-color="2"/>
    </g>
</svg>
