<?xml version="1.0" encoding="UTF-8"?>
<svg data-bbox="29.84 1.874 140.36 198.136" viewBox="0 0 200 200" xmlns="http://www.w3.org/2000/svg" data-type="ugc">
    <g>
        <path d="M73.35 119.91v-8.26c0-1.94-.3-2.11 2.05-2.28 11.33-.82 21.9-4.12 31.41-10.39 15.9-10.48 25.85-25.06 29.64-43.79.6-2.94 1.01-5.9 1.03-8.91 0-1.16.48-1.52 1.62-1.51 5.82.04 11.65.05 17.47 0 1.05 0 1.61.43 2.12 1.25 4.71 7.51 8.37 15.51 11.09 23.95.4 1.23.19 2.37-.19 3.56-3.66 11.71-9.18 22.45-16.65 32.17-13.05 16.96-29.71 28.85-49.99 35.67-2.03.68-3.83.68-5.86 0-7.61-2.57-14.84-5.92-21.77-10-1.54-.9-2.11-1.92-2.01-3.67.15-2.58.04-5.18.04-7.77Z" fill="none" stroke="#eff7f9" stroke-miterlimit="10" stroke-width="2"/>
        <path d="M52.11 99.17c-2.75 0-5.5-.04-8.25.02-1.17.03-1.93-.31-2.58-1.34-4.7-7.52-8.36-15.51-11.06-23.95-.31-.96-.29-1.9.01-2.86 2.69-8.62 6.35-16.79 11.1-24.47.57-.92 1.21-1.34 2.33-1.33 5.66.05 11.32.01 16.98.03 1.71 0 1.76.04 1.84 1.74.42 8.26 2.42 16.13 5.89 23.63.48 1.03.54 1.89.04 2.96-3.48 7.58-5.48 15.53-5.9 23.88-.08 1.63-.13 1.65-1.92 1.67-2.83.02-5.66 0-8.49 0Z" fill="#eff7f9"/>
        <path d="M126.66 23.98c0 3-.04 6 .02 8.99.02 1.13-.36 1.55-1.52 1.61-8.25.41-16.13 2.39-23.63 5.84-.99.45-1.78.42-2.74-.02-7.56-3.52-15.5-5.55-23.84-5.98-1.7-.09-1.73-.15-1.74-1.85-.02-5.67.02-11.35-.03-17.02 0-1.1.36-1.77 1.29-2.35 7.59-4.73 15.66-8.42 24.18-11.12.97-.31 1.89-.25 2.84.05 8.37 2.64 16.3 6.24 23.79 10.81 1.03.63 1.43 1.34 1.39 2.53-.08 2.83-.02 5.67-.02 8.51Z" fill="#eff7f9"/>
        <path d="M95.21 43.59c-9.87 6.04-17.48 13.71-23.46 23.43-1.87-4.11-2.95-8.05-3.77-12.06-.83-4.06-1.15-8.17-1.11-12.31.02-1.86-.04-1.91-1.89-1.91-5.58-.02-11.16 0-16.74 0h-2.43c1.46-4.89 16.87-20.2 22.59-23.26.57.51.29 1.2.29 1.79.03 5.43.01 10.85.02 16.28 0 3.38-.19 3.07 2.92 3.12 7.42.11 14.62 1.42 21.56 4.11.52.2 1.04.43 2.01.83Z" fill="#eff7f9"/>
        <path d="m154.42 39.69-.26.52h-18.85c-2.19 0-2.24.02-2.2 2.3.12 7.87-1.37 15.44-4.21 22.76-.12.3-.26.59-.54 1.2-1.59-2.18-3.05-4.25-4.56-6.26-1.4-1.86-2.92-3.64-4.54-5.32-2.26-2.34-4.63-4.57-7.22-6.53-2.11-1.6-4.28-3.1-6.64-4.8 2.62-1.32 5.23-2.05 7.84-2.74 5.1-1.34 10.29-2.06 15.58-2.01 2.44.02 2.31.18 2.31-2.42V18.41c0-.38-.11-.8.39-1.39 8.83 6.36 16.43 13.92 22.88 22.66Z" fill="#eff7f9"/>
        <path d="M45.42 103.58h19.41c1.86-.04 1.9-.04 1.9-1.85 0-3.08.11-6.14.55-9.2.74-5.15 2.09-10.12 4.19-15.26 1.7 2.35 3.22 4.53 4.82 6.65a52.99 52.99 0 0 0 4.13 4.84c2.31 2.41 4.75 4.7 7.41 6.71 2.1 1.58 4.27 3.08 6.61 4.76-3.36 1.61-6.68 2.52-10.04 3.27-4.59 1.02-9.23 1.55-13.94 1.49-1.71-.02-1.75.04-1.76 1.75-.02 5.67 0 11.33 0 17v2.69c-4.32-1.16-20.03-16.52-23.26-22.84Z" fill="#eff7f9"/>
        <path d="M57.56 163.42c0 .21-.04.4-.12.58s-.18.33-.31.47c-.13.13-.29.24-.47.31s-.37.11-.58.11h-3.75v-9.44h-2.3v9.44H47.1v-9.44h-2.3v9.44h-2.93v-9.44h-2.3v10.98c0 .5-.11.94-.32 1.31-.21.38-.49.69-.84.94s-.74.44-1.19.56-.9.19-1.36.19-.93-.06-1.37-.19-.85-.31-1.19-.56-.63-.56-.84-.94c-.21-.37-.32-.81-.32-1.31v-8.84h-2.3v8.84c0 .89.17 1.66.51 2.32.34.66.8 1.21 1.36 1.65s1.21.77 1.93.99 1.46.33 2.22.33c.69 0 1.38-.1 2.05-.28.67-.19 1.28-.47 1.82-.85s1-.85 1.38-1.42c.38-.57.61-1.23.71-1.98h14.27c.52 0 1-.1 1.46-.3.46-.2.86-.47 1.2-.81.35-.34.62-.74.82-1.19.2-.45.3-.95.3-1.47v-7.97h-2.3v7.97Z" fill="#eff7f9"/>
        <path d="M58.51 152.4a.712.712 0 0 1-.15-.22c-.04-.09-.07-.19-.1-.31-.02-.11-.04-.23-.04-.35 0-.18.06-.36.19-.51s.33-.24.6-.25h.96v-1.15h-.98c-.35 0-.64.07-.89.17-.24.11-.44.25-.59.43-.15.18-.26.38-.33.6a2.526 2.526 0 0 0 .09 1.66h-.59v1.15h3.73v-1.15h-1.72c-.06 0-.13-.03-.19-.08Z" fill="#eff7f9"/>
        <path fill="#eff7f9" d="M65.26 150.9v16.28h-2.3V150.9h2.3z"/>
        <path d="M77.67 158.16c-.23-.4-.51-.76-.84-1.09s-.69-.61-1.08-.85-.81-.42-1.27-.56c-.45-.13-.92-.2-1.42-.2-.73 0-1.41.14-2.06.43s-1.21.67-1.68 1.16c-.48.49-.85 1.06-1.13 1.72s-.42 1.36-.42 2.11v2.59c0 .52.1 1 .3 1.45a3.75 3.75 0 0 0 2 1.97c.45.19.93.29 1.44.29H76c-.08.33-.21.63-.39.91s-.4.51-.65.71-.54.36-.86.47-.65.17-1 .17h-3.61v2.29h3.61c.73 0 1.41-.14 2.06-.42.65-.28 1.21-.66 1.68-1.13s.85-1.04 1.13-1.68c.28-.65.42-1.33.42-2.06v-5.63c0-.48-.06-.94-.19-1.39s-.3-.88-.53-1.27Zm-1.58 6.73h-4.58c-.19 0-.38-.04-.55-.11s-.32-.18-.45-.31-.23-.28-.31-.45c-.08-.17-.12-.36-.12-.55v-2.59c0-.44.08-.84.24-1.22s.37-.71.64-.99.59-.5.95-.67.75-.24 1.16-.24.8.08 1.17.25.69.39.96.66c.27.28.49.6.65.98s.24.76.24 1.17v4.08Z" fill="#eff7f9"/>
        <path d="M82.97 166.01c0 .46-.12.91-.34 1.36-.1.19-.22.39-.36.6-.15.21-.33.41-.56.62s-.49.41-.79.61-.66.38-1.07.55l.88 2.12c.6-.25 1.12-.53 1.56-.84s.83-.62 1.16-.95c.33-.33.6-.66.81-.99.21-.34.39-.66.53-.96.31-.73.48-1.46.48-2.22v-10.46h-2.3v10.56Z" fill="#eff7f9"/>
        <path d="M94.57 152.9c.11.1.23.19.38.25.14.06.29.09.45.09s.31-.03.45-.09.27-.14.38-.25a1.152 1.152 0 0 0 .25-1.27 1.207 1.207 0 0 0-.63-.63c-.14-.06-.29-.09-.45-.09s-.31.03-.45.09a1.225 1.225 0 0 0-.63.63c-.06.14-.09.29-.09.45s.03.31.09.45.15.26.25.37Z" fill="#eff7f9"/>
        <path d="M98 152.9c.11.1.23.19.38.25.14.06.29.09.45.09.32 0 .6-.11.82-.34s.34-.5.34-.82c0-.16-.03-.31-.09-.45s-.14-.27-.25-.37c-.1-.11-.23-.19-.37-.26-.14-.06-.29-.09-.45-.09s-.31.03-.45.09a1.225 1.225 0 0 0-.63.63c-.06.14-.09.29-.09.45s.03.31.09.45.15.26.25.37Z" fill="#eff7f9"/>
        <path d="M108.3 160.69c0-.42.08-.81.23-1.17s.36-.67.63-.94.58-.47.93-.62a2.945 2.945 0 0 1 1.92-.11c.29.08.6.19.93.34l.92-2.09c-.94-.45-1.82-.67-2.61-.65-.73 0-1.41.13-2.05.4-.64.26-1.19.63-1.66 1.11-.47.47-.85 1.03-1.12 1.67-.27.64-.41 1.33-.41 2.07v4.2h-3.66v-4.09c0-.72-.13-1.4-.41-2.05-.28-.65-.66-1.22-1.14-1.7-.48-.49-1.05-.87-1.69-1.16s-1.33-.43-2.06-.43-1.41.14-2.06.43-1.21.67-1.68 1.16c-.48.49-.85 1.06-1.13 1.72s-.42 1.36-.42 2.11v2.58c0 .52.1 1 .29 1.45.2.45.46.85.8 1.19.34.34.74.6 1.19.8s.94.29 1.45.29H98v-2.29h-2.51c-.2 0-.39-.04-.56-.11s-.32-.18-.45-.31-.23-.28-.31-.45a1.31 1.31 0 0 1-.12-.56v-2.58c0-.44.08-.84.24-1.22.16-.38.37-.71.64-.99s.59-.5.95-.67.76-.24 1.17-.24.8.08 1.17.25.69.39.96.66c.27.28.49.6.65.97.16.37.23.76.22 1.17v6.38h15.06v-2.29h-6.8v-4.2Z" fill="#eff7f9"/>
        <path d="M150.72 169.38a1.195 1.195 0 0 0-.83.34 1.152 1.152 0 0 0-.25 1.27 1.207 1.207 0 0 0 .63.63c.14.06.29.09.45.09s.31-.03.45-.09.26-.15.37-.26c.1-.11.19-.23.25-.37.06-.14.09-.29.09-.45 0-.32-.11-.6-.34-.82s-.5-.34-.82-.34Z" fill="#eff7f9"/>
        <path d="M169.76 158.78c-.28-.65-.65-1.21-1.13-1.71-.48-.49-1.04-.88-1.67-1.17s-1.32-.44-2.04-.44-1.41.14-2.04.42a5.36 5.36 0 0 0-2.8 2.85c-.28.65-.41 1.34-.41 2.07v2.61c0 .26.02.51.05.76s.08.49.15.72h-3.85v-3.99c0-1.09-.15-1.99-.46-2.69-.3-.7-.71-1.26-1.2-1.67-.5-.41-1.06-.7-1.7-.86s-1.28-.24-1.94-.24c-.45 0-.91.04-1.39.12a14.209 14.209 0 0 0-2.54.68c-.36.13-.64.25-.86.36l.98 2.05c.18-.08.41-.18.7-.28.29-.11.6-.21.94-.3.34-.09.7-.17 1.07-.24s.74-.1 1.1-.1.74.05 1.1.15.68.26.96.5c.28.24.5.56.68.97.17.41.26.93.26 1.56v3.99H142.2c.06-.23.12-.46.16-.7.04-.24.06-.49.05-.75v-2.64c0-.71-.14-1.39-.41-2.03-.27-.64-.65-1.21-1.13-1.71-.48-.49-1.04-.88-1.68-1.17-.64-.29-1.32-.44-2.04-.44s-1.4.14-2.04.42c-.64.28-1.19.66-1.67 1.15a5.35 5.35 0 0 0-1.12 1.7c-.28.65-.41 1.34-.41 2.07v2.61c0 .26.02.51.05.76s.08.49.15.72h-3.85v-4.07c0-.48-.06-.94-.19-1.39-.13-.45-.3-.87-.53-1.27a5.47 5.47 0 0 0-.84-1.09c-.33-.33-.69-.61-1.08-.85s-.82-.42-1.27-.56c-.46-.13-.93-.2-1.41-.2-.73 0-1.41.14-2.05.43s-1.2.67-1.68 1.16c-.48.49-.85 1.06-1.13 1.72s-.42 1.36-.42 2.11v2.59a3.68 3.68 0 0 0 1.09 2.63c.34.33.73.6 1.19.79.45.19.93.29 1.44.29h4.49c-.08.33-.21.63-.39.91s-.4.51-.65.71-.54.36-.86.47-.65.17-1 .17h-3.61v2.29h3.61c.67 0 1.3-.12 1.9-.35s1.13-.56 1.59-.96c.46-.41.85-.89 1.16-1.44s.5-1.15.59-1.8h5.22c.48.51 1.04.9 1.68 1.19s1.32.42 2.05.42 1.41-.15 2.05-.44 1.2-.68 1.69-1.17h20.3c.48.51 1.03.9 1.67 1.19.63.28 1.33.42 2.08.42s1.4-.15 2.04-.44c.64-.29 1.2-.68 1.67-1.17.48-.49.85-1.05 1.13-1.7.28-.64.41-1.33.41-2.04v-2.64c0-.71-.14-1.39-.41-2.03Zm-43.82 6.11h-4.57c-.19 0-.38-.04-.55-.11a1.57 1.57 0 0 1-.45-.31 1.57 1.57 0 0 1-.31-.45c-.08-.17-.12-.36-.12-.55v-2.59c0-.44.08-.84.24-1.22.16-.38.37-.71.64-.99s.59-.5.95-.67c.36-.16.75-.24 1.16-.24s.81.08 1.18.25.68.39.96.66c.27.28.48.6.64.98.16.37.24.76.24 1.17v4.08Zm14.15-1.44a3.079 3.079 0 0 1-1.81 2.82c-.35.16-.74.24-1.14.24s-.78-.08-1.14-.24-.67-.38-.94-.66c-.27-.28-.48-.6-.63-.98-.15-.37-.23-.77-.23-1.2v-2.62c0-.42.08-.82.23-1.19s.36-.7.63-.97.58-.49.94-.66c.36-.16.74-.24 1.14-.24s.78.08 1.14.25a3.159 3.159 0 0 1 1.58 1.64c.15.37.23.76.23 1.17v2.64Zm27.79 0a3.079 3.079 0 0 1-1.81 2.82c-.35.16-.74.24-1.14.24a2.87 2.87 0 0 1-2.1-.9c-.27-.28-.48-.6-.63-.98-.15-.37-.23-.77-.23-1.2v-2.62c0-.42.08-.82.23-1.19s.36-.7.63-.97.58-.49.94-.66c.36-.16.74-.24 1.16-.24s.78.08 1.14.25a3.159 3.159 0 0 1 1.58 1.64c.15.37.23.76.23 1.17v2.64Z" fill="#eff7f9"/>
        <path d="M41.68 193.1c-.09-1.08-.15-1.73-.18-1.94-.07-.68-.25-1.23-.54-1.66-.38-.58-.94-.94-1.67-1.09.59-.2 1.08-.49 1.48-.87.75-.73 1.12-1.68 1.12-2.87 0-1.54-.61-2.7-1.84-3.46-.71-.45-1.7-.67-2.98-.67h-6.93v15.17h2v-6.57h3.99c1.15 0 1.96.15 2.43.46.68.45 1.07 1.49 1.15 3.12.06 1.33.13 2.12.2 2.37.08.28.17.48.26.61h2.29l-.19-.22c-.28-.31-.48-1.11-.59-2.41Zm-3.73-5.71c-.48.1-1.16.15-2.03.15h-3.78v-5.24h4.31c.52 0 .97.03 1.36.1.57.09 1.03.29 1.37.61.47.45.71 1.07.71 1.86 0 .67-.15 1.21-.46 1.63-.34.47-.83.77-1.46.9Z" fill="#eff7f9"/>
        <path d="M53.61 193.69v-5.49c0-.72-.01-1.15-.03-1.27-.1-.62-.33-1.1-.69-1.44-.74-.72-1.88-1.09-3.42-1.09s-2.65.36-3.43 1.07c-.76.68-1.15 1.58-1.17 2.7h1.77c.07-.67.24-1.16.5-1.46.45-.52 1.18-.79 2.21-.79 1.64 0 2.47.64 2.47 1.92 0 .34-.08.62-.23.83-.22.32-.79.53-1.7.64-1.13.14-1.74.22-1.83.23-.62.1-1.14.23-1.55.4-1.38.55-2.07 1.55-2.07 2.99 0 1 .35 1.8 1.06 2.38.61.5 1.43.75 2.47.75 1.63 0 2.96-.59 3.98-1.78 0 .44.1.79.29 1.04.29.39.71.59 1.28.59.42 0 .85-.08 1.27-.23v-1.41c-.17.08-.33.12-.48.12-.45 0-.67-.23-.67-.7Zm-1.77-2.03c0 .4-.03.7-.08.89-.11.44-.42.85-.93 1.23-.69.52-1.48.78-2.38.78-.7 0-1.22-.16-1.58-.47-.39-.34-.59-.78-.59-1.31 0-.68.31-1.17.93-1.48.41-.2 1.14-.36 2.2-.48.73-.09 1.23-.16 1.51-.23.35-.08.66-.21.93-.39v1.46Z" fill="#eff7f9"/>
        <path d="M67.33 190.61c-.24.8-.5 1.83-.78 3.11-.29-1.41-.53-2.47-.72-3.15l-1.58-5.85h-2l-1.36 5.21c-.2.79-.49 2.05-.86 3.79a77.83 77.83 0 0 0-.99-3.74l-1.52-5.26h-2l3.52 11H61l1.57-6.03c.22-.83.43-1.73.65-2.72.22 1.03.43 1.95.65 2.75l1.64 6.01h1.93l3.51-11h-1.89l-1.71 5.89Z" fill="#eff7f9"/>
        <path d="M81.09 193.69v-5.49c0-.72-.01-1.15-.03-1.27-.1-.62-.33-1.1-.69-1.44-.74-.72-1.88-1.09-3.42-1.09s-2.65.36-3.43 1.07c-.76.68-1.15 1.58-1.17 2.7h1.77c.07-.67.24-1.16.5-1.46.45-.52 1.18-.79 2.21-.79 1.64 0 2.47.64 2.47 1.92 0 .34-.08.62-.23.83-.22.32-.79.53-1.7.64-1.13.14-1.74.22-1.83.23-.62.1-1.14.23-1.55.4-1.38.55-2.07 1.55-2.07 2.99 0 1 .35 1.8 1.06 2.38.61.5 1.43.75 2.47.75 1.63 0 2.96-.59 3.98-1.78 0 .44.1.79.29 1.04.29.39.71.59 1.28.59.42 0 .85-.08 1.27-.23v-1.41c-.17.08-.33.12-.48.12-.45 0-.67-.23-.67-.7Zm-1.78-2.03c0 .4-.03.7-.08.89-.11.44-.42.85-.93 1.23-.69.52-1.48.78-2.38.78-.7 0-1.22-.16-1.58-.47-.39-.34-.59-.78-.59-1.31 0-.68.31-1.17.93-1.48.41-.2 1.14-.36 2.2-.48.73-.09 1.23-.16 1.51-.23.35-.08.66-.21.93-.39v1.46Z" fill="#eff7f9"/>
        <path d="M93.83 188.97c-.21-1.49-.79-2.65-1.73-3.46-.88-.75-1.93-1.12-3.17-1.12-1.51 0-2.76.56-3.73 1.68-.95 1.1-1.42 2.51-1.42 4.23 0 1.59.39 2.9 1.16 3.93.92 1.21 2.26 1.81 4.04 1.81 2.63 0 4.24-1.28 4.81-3.84h-1.78c-.15.47-.32.85-.52 1.16-.51.78-1.31 1.16-2.39 1.16-2.23 0-3.38-1.31-3.47-3.93h8.27c0-.62-.02-1.17-.09-1.63Zm-8.17.23c.11-.83.34-1.51.69-2.02.57-.84 1.41-1.26 2.52-1.26s2.03.47 2.62 1.4c.32.5.5 1.13.56 1.88h-6.38Z" fill="#eff7f9"/>
        <path d="M100.4 189.19c-.7-.16-1.27-.31-1.72-.44-.39-.11-.7-.28-.93-.51-.19-.19-.28-.46-.28-.79 0-.51.21-.9.64-1.16.39-.25.93-.38 1.62-.38 1.09 0 1.85.29 2.28.88.19.26.32.64.39 1.13h1.82c-.07-.94-.33-1.67-.78-2.19-.77-.9-1.98-1.35-3.63-1.35-1.07 0-1.95.2-2.65.6-1.03.59-1.54 1.47-1.54 2.64 0 1.27.69 2.14 2.07 2.62.25.09 1.03.29 2.34.6.48.11.92.23 1.3.36.42.13.77.31 1.04.54.28.23.42.55.42.96s-.14.74-.42 1.04c-.48.52-1.24.78-2.27.78-1.13 0-1.95-.3-2.45-.89-.26-.32-.42-.78-.5-1.39h-1.78c.04 1.03.35 1.86.92 2.48.81.88 2.08 1.32 3.8 1.32s2.94-.46 3.75-1.37c.55-.62.82-1.34.82-2.15 0-.93-.34-1.65-1.03-2.15-.62-.45-1.69-.85-3.22-1.18Z" fill="#eff7f9"/>
        <path d="M117.31 189.34h4.86c-.03 1.63-.48 2.87-1.36 3.73-.88.87-2.02 1.3-3.4 1.3-1.79 0-3.17-.66-4.15-1.97-.8-1.09-1.21-2.49-1.21-4.19 0-1.85.44-3.33 1.32-4.45.98-1.23 2.32-1.85 4.04-1.85 1.54 0 2.72.48 3.54 1.45.47.55.76 1.17.86 1.85h1.96a5.24 5.24 0 0 0-1.5-3.19c-1.18-1.21-2.81-1.82-4.87-1.82-2.23 0-3.99.74-5.31 2.21-1.38 1.54-2.07 3.5-2.07 5.88 0 2.02.53 3.74 1.6 5.15 1.33 1.75 3.21 2.63 5.64 2.63 2.02 0 3.65-.75 4.88-2.24.06.19.13.43.2.74l.31 1.15h1.27v-8h-6.64v1.62Z" fill="#eff7f9"/>
        <path d="M128.74 187.02v-2.29h-1.68v11h1.81v-4.27c0-.85.03-1.52.09-1.99.11-.96.43-1.71.96-2.25.62-.64 1.42-.96 2.39-.96.11 0 .31.01.57.03v-1.88c-.75 0-1.39.1-1.89.3-.95.37-1.69 1.14-2.24 2.31Z" fill="#eff7f9"/>
        <path d="M139.31 184.4c-1.82 0-3.22.62-4.2 1.85-.81 1.03-1.22 2.36-1.22 3.97 0 1.69.45 3.07 1.36 4.13.95 1.13 2.3 1.69 4.04 1.69 1.51 0 2.71-.44 3.62-1.31 1.09-1.06 1.64-2.57 1.64-4.52 0-1.78-.46-3.18-1.39-4.2-.98-1.08-2.26-1.62-3.84-1.62Zm2.22 9.26c-.57.58-1.32.87-2.25.87-1.05 0-1.88-.34-2.5-1.03-.69-.77-1.03-1.86-1.03-3.26s.36-2.52 1.07-3.29c.63-.68 1.46-1.02 2.48-1.02s1.77.35 2.39 1.04c.67.77 1.01 1.84 1.01 3.23 0 1.51-.39 2.67-1.16 3.47Z" fill="#eff7f9"/>
        <path d="M154.29 190.04c0 1.37-.14 2.32-.42 2.85-.57 1.09-1.45 1.64-2.66 1.64-.93 0-1.58-.31-1.95-.93-.23-.38-.34-1.18-.34-2.4v-6.48h-1.81v7.14c0 1.39.24 2.39.71 2.98.64.8 1.6 1.21 2.87 1.21 1.57 0 2.81-.68 3.73-2.05v1.72h1.68v-11h-1.81v5.32Z" fill="#eff7f9"/>
        <path d="M168.32 185.82c-.9-.95-2.07-1.42-3.51-1.42-1.16 0-2.11.32-2.85.96-.25.22-.52.53-.82.94v-1.57h-1.68v15.28h1.81v-5.78c.84 1.22 2.06 1.83 3.67 1.83 1.46 0 2.65-.53 3.56-1.58.91-1.06 1.37-2.45 1.37-4.18 0-1.9-.52-3.39-1.55-4.47Zm-1.28 7.64c-.58.71-1.38 1.07-2.39 1.07s-1.78-.34-2.4-1.01c-.71-.76-1.07-1.86-1.07-3.29s.32-2.45.96-3.21c.62-.73 1.46-1.1 2.51-1.1.98 0 1.77.36 2.36 1.08.67.83 1.01 1.92 1.01 3.29s-.33 2.37-.98 3.18Z" fill="#eff7f9"/>
    </g>
</svg>
