<?xml version="1.0" encoding="UTF-8"?>
<svg data-bbox="4.004 3.997 191.989 192.011" viewBox="0 0 200 200" xmlns="http://www.w3.org/2000/svg" data-type="ugc">
    <g>
        <defs>
            <linearGradient gradientUnits="userSpaceOnUse" y2="129.41" x2="196" y1="129.41" x1="63.39" id="e37abbe6-b71d-45df-8ef6-126df0021f3f">
                <stop stop-color="#ecc383" offset=".03"/>
                <stop stop-color="#e1b87c" offset=".21"/>
                <stop stop-color="#c39d69" offset=".53"/>
                <stop stop-color="#94724c" offset=".94"/>
                <stop stop-color="#8e6c48" offset="1"/>
            </linearGradient>
            <linearGradient gradientUnits="userSpaceOnUse" y2="129.41" x2="196.05" y1="129.41" x1="63.33" id="4d032df5-78d3-4d84-ac70-e5a353c38845">
                <stop stop-color="#ffffff" offset="0"/>
                <stop stop-color="#000000" offset="1"/>
            </linearGradient>
        </defs>
        <path d="M63.45 165.89v-11.33c0-2.66-.41-2.89 2.81-3.13 15.54-1.12 30.03-5.65 43.08-14.25 21.8-14.37 35.45-34.37 40.65-60.06.82-4.03 1.39-8.1 1.42-12.22.01-1.58.67-2.09 2.22-2.07 7.99.06 15.97.06 23.96 0 1.45-.01 2.21.59 2.91 1.72 6.46 10.3 11.48 21.27 15.2 32.84.54 1.68.26 3.25-.25 4.88-5.02 16.05-12.59 30.79-22.84 44.12-17.89 23.26-40.74 39.57-68.56 48.92-2.78.93-5.26.93-8.04 0-10.44-3.52-20.36-8.12-29.85-13.71-2.11-1.24-2.89-2.63-2.76-5.04.21-3.54.05-7.11.05-10.66Z" fill="url(#e37abbe6-b71d-45df-8ef6-126df0021f3f)" stroke="url(#4d032df5-78d3-4d84-ac70-e5a353c38845)" stroke-miterlimit="10" stroke-width=".11"/>
        <path d="M34.33 137.44c-3.77 0-7.54-.06-11.31.03-1.6.04-2.65-.42-3.54-1.84-6.44-10.31-11.47-21.27-15.17-32.85-.42-1.32-.4-2.6.01-3.92C8 87.04 13.02 75.84 19.54 65.31c.78-1.26 1.66-1.84 3.2-1.82 7.76.08 15.53.02 23.29.04 2.35 0 2.41.06 2.53 2.39.58 11.33 3.33 22.13 8.07 32.41.65 1.42.73 2.6.06 4.06-4.77 10.39-7.52 21.3-8.09 32.75-.11 2.23-.17 2.27-2.63 2.29-3.88.03-7.76 0-11.64 0Z" fill="#003749"/>
        <path d="M136.56 34.32c0 4.11-.05 8.23.02 12.34.03 1.55-.49 2.13-2.08 2.21-11.32.56-22.12 3.27-32.41 8-1.35.62-2.44.58-3.75-.03-10.37-4.82-21.26-7.61-32.7-8.2-2.33-.12-2.38-.2-2.38-2.54-.03-7.78.02-15.56-.04-23.34-.01-1.51.49-2.43 1.77-3.23C75.4 13.04 86.46 7.98 98.15 4.28c1.33-.42 2.59-.35 3.9.06a147.29 147.29 0 0 1 32.63 14.83c1.41.86 1.96 1.83 1.91 3.47-.1 3.89-.03 7.78-.03 11.67Z" fill="#003749"/>
        <path d="M93.43 61.22C79.9 69.5 69.45 80.02 61.26 93.35c-2.56-5.64-4.04-11.04-5.17-16.54-1.14-5.57-1.58-11.2-1.52-16.88.03-2.55-.06-2.61-2.59-2.62-7.65-.03-15.31-.01-22.96-.01h-3.33c2.01-6.71 23.13-27.7 30.99-31.89.79.7.4 1.65.4 2.46.04 7.44.02 14.88.02 22.32 0 4.64-.26 4.21 4.01 4.28 10.18.15 20.05 1.95 29.56 5.64.72.28 1.42.59 2.75 1.14Z" fill="#003749"/>
        <path d="m174.63 55.87-.36.72h-7.89c-5.99 0-11.98-.01-17.97 0-3 0-3.07.03-3.02 3.16.17 10.8-1.88 21.18-5.77 31.22-.16.41-.36.81-.73 1.65-2.18-2.99-4.18-5.82-6.25-8.59-1.92-2.56-4-4.99-6.22-7.3-3.1-3.22-6.34-6.27-9.9-8.96-2.89-2.19-5.88-4.26-9.11-6.59 3.6-1.81 7.17-2.82 10.75-3.76 7-1.84 14.12-2.83 21.37-2.76 3.34.03 3.17.25 3.17-3.31V26.7c0-.52-.15-1.09.54-1.91 12.11 8.72 22.53 19.09 31.38 31.07Z" fill="#003749"/>
        <path d="M25.14 143.48h24.28c.78 0 1.55.01 2.33 0 2.55-.05 2.61-.06 2.6-2.54 0-4.22.15-8.43.75-12.62 1.02-7.06 2.87-13.87 5.75-20.93 2.33 3.22 4.42 6.21 6.61 9.12 1.75 2.33 3.65 4.54 5.67 6.64 3.17 3.31 6.51 6.44 10.16 9.2 2.88 2.17 5.85 4.23 9.06 6.53-4.61 2.21-9.16 3.46-13.77 4.49-6.29 1.4-12.66 2.13-19.12 2.04-2.34-.03-2.4.06-2.41 2.39-.03 7.77-.01 15.54-.01 23.31v3.68c-5.92-1.59-27.47-22.66-31.9-31.33Z" fill="#003749"/>
    </g>
</svg>
