<?xml version="1.0" encoding="UTF-8"?>
<svg data-bbox="22.46 5.928 424.38 235.717" viewBox="0 0 472.35 250" xmlns="http://www.w3.org/2000/svg" data-type="color">
    <g>
        <path d="M302.19 6.31c1.96.17 3.91.4 5.86.69 20.1 3.01 39.66 13.38 50.79 30.4 11.09 16.96 12.78 38.8 8.45 58.6 1.07-19.39-3.8-39.79-16.82-54.2-9.14-10.11-21.77-16.7-35.02-19.86-13.25-3.16-27.13-3.04-40.62-1.14-48.77 6.85-92.24 36.66-123.52 74.69-1.65 2.01-3.47 4.17-6.01 4.76-9.4 2.17-.96-8.43.7-10.72 3.54-4.88 7.3-9.61 11.26-14.16 7.91-9.11 16.62-17.53 25.97-25.15 18.71-15.24 40.02-27.3 62.79-35.3.68-.24 1.37-.48 2.06-.71 17.39-5.89 35.88-9.49 54.11-7.91Z" fill="#f9ba48" data-color="1"/>
        <path d="M298.45 183.11c-4.24 6.01-11.61 11.04-17.26 15.58-6.6 5.3-13.49 10.24-20.66 14.77-14.27 9-29.64 16.32-45.77 21.32-3.22 1-6.48 1.91-9.76 2.72-22.18 5.47-46.24 6.34-67.36-2.4-21.11-8.74-38.56-28.41-40.21-51.2 1.64-.74 3.65.06 4.88 1.38 1.23 1.32 1.88 3.06 2.58 4.73 7.27 17.11 23.55 29.37 41.36 34.7 17.81 5.34 37 4.37 55.18.49 30.45-6.5 59.12-21.18 82.21-42.07h14.82Z" fill="#f9ba48" data-color="1"/>
        <path d="M22.8 133.5h23.61c7.58.03 15.15.06 22.73.1 15.15.06 30.3.13 45.45.19 15.12.06 30.25.03 45.38.22 1.96.02 3.92.05 5.89.08.29 0 .61 0 .84-.19.27-.23.3-.63.31-.99.14-9.55.27-19.1.41-28.65 0-.64.05-1.35.52-1.79.44-.41 1.11-.43 1.71-.42l9.9.09c3.01.03 6.3.15 8.59 2.12 2.82 2.43 2.99 6.66 2.95 10.38-.07 6.07-.14 12.14-.2 18.21 0 .84.07 1.84.79 2.27.36.21.79.22 1.2.23 2.78.05 5.57.1 8.35.14.72.01 1.53 0 2.05-.51.53-.52.55-1.37.54-2.11-.21-9.46-.28-18.91-.21-28.37 0-.63.07-1.36.59-1.7.3-.2.69-.21 1.05-.21 4.12-.03 8.24.07 12.35.01 4.31-.06 7.89 1.08 9.33 5.56.68 2.12.7 4.39.72 6.62l.15 19.44c0 .32.02.67.25.88.21.2.53.21.81.21 4.61.03 9.22-.04 13.84.08.35 0 .81-.07.85-.42.03-.23-.16-.41-.33-.56-.66-.58-1.33-1.15-1.99-1.73-1.3-1.13-1.7-2.14-1.69-3.83.01-1.74.08-3.47.05-5.21-.09-5.37-1.11-12.27 2.55-16.7 2.18-2.63 5.54-4.21 8.96-4.33 1.95-.07 3.91.32 5.68 1.12 5.3 2.39 6.71 7.2 6.65 12.54-.07 5.31-.15 10.61-.22 15.92 0 .5-.04.99-.05 1.49 0 .3-.03.6.03.89.17.86.37 1.1 1.28 1.12 1.19.02 2.38.03 3.57.05 2.08.03 4.16.07 6.25.11.35 0 .69.01 1.04 0 .69-.04 1.09-.4 1.18-1.11.05-.39.08-.79.05-1.19-.13-1.83 0-3.67 0-5.5.01-1.49 0-2.98.07-4.46.07-1.34.11-2.67.12-4.01 0-.25.02-.5 0-.74-.23-3.82 0-7.63-.05-11.45-.06-4.41.06-8.83.1-13.24.01-1.29-.02-2.58-.02-3.87v-1.04c0-.62.29-.96.91-1.17.67-.23 1.31-.38 2.02-.35 1.04.04 2.08 0 3.12.01.54 0 1.09.03 1.63.08.6.06 1.07.57 1.12 1.19.02.3.02.59.02.89-.03 2.53-.07 5.06-.11 7.59-.13 7.9-.15 15.79-.17 23.69-.01 3.95-.02 7.9-.04 11.85-.01 2.24 1.02 8.51-.57 10.1-1.4 1.39-8.51.57-10.47.61-3.81.08-7.63.05-11.44 0-7.61-.12-15.22-.43-22.84-.47-15.14-.07-30.28-.15-45.41-.22-29.91 0-59.82-.33-89.73-.66l-82.2-1.24.18-7.62Zm232.04-9.23c.01-2.89.03-5.77.04-8.66 0-.93 0-1.88-.32-2.75-.65-1.71-2.68-2.61-4.42-2.28-2.61.5-1.8 3.74-1.85 5.79-.13 6.05-.07 12.1.17 18.15.01.32.06.7.33.87.15.09.34.1.52.1h4.31c.28 0 .57 0 .8-.17.33-.24.36-.71.36-1.11.02-3.31.03-6.62.05-9.93Zm-41.45 10.54c1.35.21 2.68.35 4.01.43 1.14.07 1.3-.06 1.33-1.21.02-.79-.04-1.58-.03-2.38.03-3.12.03-6.25.12-9.37.05-1.54.09-3.07.11-4.61.01-.99 0-1.98.02-2.97 0-.49.04-.99.11-1.48.06-.41-.01-.76-.15-1.15-.25-.68-.73-1.17-1.22-1.65-.13-.13-.34-.21-.52-.26-.29-.07-.59-.1-.88-.11-.94-.03-1.88-.06-2.82-.08-.3 0-.59.21-.66.5-.14.53-.21 1.06-.18 1.62.05.79.06 1.59.05 2.38-.03 4.31-.06 8.63-.13 12.94-.03 1.73.1 3.47-.12 5.2-.09.7.08 1.26.61 1.74.14.13.24.31.35.46Zm-37.28-15.08v10.81c0 1.38.07 2.94 1.1 3.87.99.9 2.49.86 3.82.77.34-.02.7-.06.94-.29.28-.26.3-.69.31-1.07.13-6.98.15-13.96.04-20.93 0-.55-.02-1.12-.28-1.61-.43-.82-1.36-.73-2.14-.92-.89-.21-3.13-.62-3.65.36-.14.26-.14.57-.14.86v8.14Z" fill="#f9ba48" data-color="1"/>
        <path d="M303.34 100.25c.06 13.87.27 27.76.05 41.64-.04 2.58-7.39 2.82-8.57.87-.39-.64-.4-1.44-.39-2.19l.12-26.41c.04-8.3-.5-16.84.38-25.09.22-2.07 4.83-1.29 6.34-1.24.45.01.91.04 1.3.25.81.45.76 1.71.76 2.5 0 1.14-.01 2.28-.01 3.42 0 2.08 0 4.16.01 6.25Z" fill="#f9ba48" data-color="1"/>
        <path d="M348.87 80.9c-.12 2.5-.33 4.93-.51 7.14a98.723 98.723 0 0 1-4.5 22.57c-.17.54-.38 1.12-.86 1.43-.39.26-.89.28-1.35.28-2.46-.03-3.7-.06-2.88-2.58.75-2.3 1.76-4.53 2.52-6.83 1.52-4.61 2.72-9.32 3.62-14.09.74-3.96 1.28-7.96 1.6-11.98.27-3.33-.43-7.55.47-10.74.02-.07.14-.16.22-.17.08 0 .2.05.26.11.09.11.16.25.2.39 1.36 4.27 1.46 9.5 1.21 14.47Z" fill="#f9ba48" data-color="1"/>
        <path d="M22.87 115.64v-3.36c0-2.48 0-4.97-.01-7.45 0-1.06-.21-1.71.85-2.1s2.61-.24 3.71-.06c.45.07.9.18 1.29.41.82.49 1.22 1.45 1.46 2.38.42 1.68.44 3.42.41 5.15-.04 1.94-.2 4.03-1.43 5.54-.23.29-.51.57-.57.93-.04.27.05.53.14.79.97 2.86 1.72 5.8 2.24 8.77.39-.07.52-.55.58-.95.99-7.06 1.98-14.12 2.98-21.19.07-.46.14-.94.37-1.35s.69-.72 1.16-.65c.76.11 1.03 1.05 1.14 1.81 1.05 7.52 2.1 15.03 3.16 22.55.06.42.1.89-.16 1.22-.39.49-1.23.33-1.63-.15s-.47-1.15-.52-1.77c-.07-.8-.15-1.6-.22-2.4-.03-.35-.08-.73-.36-.95-.21-.16-.49-.17-.75-.18l-1.76-.06c-.27 0-.57 0-.77.18-.18.16-.22.42-.26.66-.19 1.25-.37 2.49-.56 3.74-.06.38-.15.82-.5.99-.15.07-.33.08-.5.08-.54 0-1.08.01-1.62.02-.46 0-.95 0-1.35-.24-.55-.34-.75-1.03-.91-1.66-.58-2.39-1.16-4.79-1.75-7.18-.1-.39-.2-.8-.48-1.1s-.78-.41-1.08-.14c-.23.21-.26.55-.27.86-.09 2.33-.07 4.66.09 6.98.04.64.08 1.33-.26 1.87s-1.23.77-1.61.25c-.19-.25-.2-.59-.2-.9 0-3.77 0-7.54-.02-11.32Zm5.6-5.12c.01-.54.02-1.09 0-1.63 0-.5-.03-1.04-.33-1.44-.49-.67-1.46-.69-2.28-.65-1.3.07-1.02 1.08-1.08 2.14-.06 1.2-.09 2.4-.09 3.61 0 .3.01.63.21.85.24.27.66.28 1.02.24.46-.05.91-.16 1.35-.31.31-.11.62-.24.82-.5.26-.33.3-.78.32-1.2.02-.37.03-.74.04-1.11Zm6.4 4.37c-.04 1.08-.04 2.02-.05 2.39 0 .24-.01.5.14.68.22.27.63.25.98.2.36-.05.78-.14.94-.47.09-.19.07-.41.05-.62-.25-2.24-.33-4.7-.93-6.87-.81.06-1.05 2.62-1.12 4.68Z" fill="#374a6d" data-color="2"/>
        <path d="M134.95 117.7c.61-1.4.74-2.96.86-4.49l.72-9.09c.03-.33.07-.69.32-.9.19-.16.45-.19.7-.2.47-.02.93 0 1.4.07.16.02.32.06.44.16.16.15.18.41.18.63 0 6.71.01 13.43.02 20.14 0 1.17.08 2.36-.04 3.53-.05.52-.23 1.13-.72 1.28-.43.13-.9-.18-1.1-.58s-.2-.87-.19-1.32c.04-3.25.1-6.5.15-9.75 0-.42 0-.88-.26-1.22-.36 1.76-.48 3.47-.58 5.25s-.6 3.61-.64 5.45c0 .38 0 .76-.08 1.13s-.29.73-.63.91c-.98.52-1.4-.78-1.48-1.48-.49-4.02-.82-8.05-.98-12.1-.27.26-.29.68-.3 1.06-.06 3.7-.12 7.4-.17 11.1 0 .53-.07 1.15-.52 1.41-.47.28-1.12-.03-1.39-.51s-.27-1.06-.26-1.6c.06-4.2.11-8.39.17-12.59.03-2.07.06-4.15.08-6.22.01-1.06.03-2.12.04-3.19.01-.98.05-1.49 1.19-1.53.47-.02.97-.02 1.34.26.43.34.52.95.56 1.49.38 4.31.76 8.63 1.15 12.94 0-.02.02-.04.03-.06Z" fill="#374a6d" data-color="2"/>
        <path d="M157.11 115.06c-.23 2.98-.47 5.96-.7 8.95-.09 1.12-.18 2.23-.38 3.34-.07.38-.16.77-.39 1.09s-.63.53-1.01.43c-.58-.15-.74-.89-.8-1.48-.27-2.89-.53-5.79-.8-8.68-.02-.25-.13-.57-.38-.56-.24.02-.31.34-.31.58 0 2.87-.01 5.74-.02 8.61 0 .45-.02.96-.35 1.27-.4.38-1.18.19-1.36-.33-.06-.17-.06-.36-.06-.54-.02-4.6-.04-9.2-.05-13.8 0-2.33-.02-4.65-.03-6.98 0-.81-.34-2.49.02-3.22s1.73-.56 2.36-.4c.17.04.34.1.46.22.19.18.22.47.24.73.31 3.62.63 7.24.94 10.86.08.92.16 1.84.44 2.72.32-.23.37-.67.4-1.05l.48-6.84c.13-1.91.27-3.82.62-5.69.05-.28.12-.59.34-.78.21-.19.52-.22.8-.24.61-.05 1.34-.05 1.69.46.19.28.2.64.21.97.14 7.69.11 15.38-.1 23.06 0 .34-.03.71-.27.95-.38.39-1.1.18-1.4-.27s-.32-1.04-.32-1.58v-10.97c0-.29-.03-.64-.28-.79Z" fill="#374a6d" data-color="2"/>
        <path d="M48.81 116.81c.29-4.13.59-8.26.88-12.4.03-.44.07-.89.27-1.27s.64-.68 1.07-.6c.74.15.84 1.15.77 1.89-.7 7.71-1.41 15.42-2.11 23.13-.01.12-.02.25-.06.36-.22.64-1.23.65-1.7.16s-.56-1.23-.63-1.91l-1.17-12.72c-.01-.12-.03-.26-.14-.32-.21-.12-.4.2-.43.44-.6 4.08-.99 8.18-1.17 12.3-.03.72-.08 1.5-.52 2.06s-1.46.73-1.85.12c-.14-.23-.17-.51-.2-.77-.43-4.72-.84-9.44-1.24-14.17l-.6-7.2c-.06-.7-.54-2.45-.14-3.06s1.29-.45 1.74 0c.42.52.45 1.24.46 1.91.06 3.92.4 7.84 1.02 11.72.48-1.53.63-3.14.78-4.73.19-2.09.39-4.18.47-6.28.03-.86.07-1.79.63-2.45s1.83-.71 2.13.1c.06.15.07.32.09.49.36 4.17.71 8.33 1.07 12.5.03.35.25.83.57.69Z" fill="#374a6d" data-color="2"/>
        <path d="M120.13 115.73v-2.15c0-2.27-.03-4.53-.07-6.8-.01-.8-.37-2.41-.04-3.13s1.62-.68 2.3-.62c.19.02.4.05.55.18.22.19.25.51.27.8.24 4.17.64 8.33 1.22 12.46.04.3.12.65.39.79.3-4.4.78-8.78 1.42-13.14.03-.21.06-.42.17-.6.31-.49 1.02-.47 1.6-.4.27.04.54.08.76.24.36.28.39.81.39 1.27-.03 7.58-.05 15.16-.08 22.73 0 .54-.1 1.23-.62 1.39-.38.12-.8-.16-.98-.52s-.18-.78-.18-1.18c.03-3.93 0-7.87-.05-11.8 0-.19-.07-.45-.27-.44-.16.01-.22.22-.24.39-.37 3.79-.74 7.58-.93 11.38-.03.49-.05 1.01-.28 1.44s-.72.78-1.21.66c-.7-.17-.88-1.06-.92-1.78-.2-3.27-.47-6.53-.81-9.78-.04-.39-.27-.91-.64-.79-.07 3.75-.13 7.5-.2 11.24 0 .34-.03.73-.29.95-.35.29-.93.07-1.16-.32s-.23-.87-.22-1.33c.09-3.71.14-7.43.14-11.15Z" fill="#374a6d" data-color="2"/>
        <path d="M101.09 114.11c.04-1.3.15-2.6.35-3.88.34-2.28.83-6.54 3.35-7.54.96-.38 2.1.01 2.85.73.74.72 1.16 1.71 1.47 2.7.99 3.17 1.07 6.54 1.06 9.85 0 2.31-.06 4.65-.59 6.9-.23.98-.55 2.04-.16 2.96.14.34.37.64.55.96.59 1.07.53 2.47-.14 3.5-.06.1-.14.2-.26.23-.2.05-.38-.14-.5-.32-.32-.47-.64-.94-.96-1.4-.09-.14-.2-.29-.36-.34-.26-.09-.51.11-.75.25-.89.53-2.09.27-2.89-.39s-1.28-1.62-1.64-2.6c-.74-2.02-1.05-4.17-1.23-6.31a44.62 44.62 0 0 1-.15-5.3Zm2.13.93c-.01 1.77.06 3.54.23 5.3.13 1.38.37 2.86 1.35 3.84.2.2.44.37.72.4s.59-.16.62-.44c.02-.24-.15-.45-.29-.64-.68-.95-.68-2.34.02-3.27.03-.05.07-.09.13-.11.14-.06.27.08.36.21l.61.88c.11.15.26.32.44.27.14-.04.2-.19.25-.33.63-1.97.68-4.08.63-6.14-.04-1.64-.14-3.29-.48-4.9-.2-.95-.5-1.92-1.16-2.64-.2-.22-.46-.43-.75-.48-2.54-.47-2.62 5.68-2.65 7.06 0 .34-.01.67-.02 1.01Z" fill="#374a6d" data-color="2"/>
        <path d="M74.88 128.1c-.38.38-.84.65-1.38.72-.89.13-1.79-.35-2.38-1.04s-.91-1.56-1.15-2.43c-.4-1.43-.62-2.91-.66-4.39 0-.32 0-.66.18-.92.42-.59 1.43-.25 1.77.38s.28 1.4.36 2.12.44 1.53 1.14 1.67c.54.11 1.1-.24 1.4-.71s.38-1.04.45-1.59c.15-1.18.2-2.49-.5-3.45-.45-.62-1.13-1-1.72-1.48-1.8-1.47-2.66-3.85-2.79-6.17-.13-2.38-.13-7.85 3.05-8.38.85-.14 1.76.18 2.33.82.44.5.68 1.14.87 1.78.31 1.03.54 2.08.69 3.14.06.47.11.97-.05 1.41s-.61.83-1.08.77c-.66-.08-.95-.87-1-1.53s-.05-1.42-.56-1.85c-.52-.43-1.37-.25-1.81.26s-.56 1.24-.49 1.91c.09 1.02.55 2.01 1.26 2.75.62.64 1.41 1.09 2.05 1.71 1.69 1.67 1.96 4.27 1.97 6.65 0 2.05-.11 4.14-.84 6.05-.25.65-.61 1.31-1.1 1.79Z" fill="#374a6d" data-color="2"/>
        <path d="M111.42 115.37v-1.08c.01-2.18.04-4.35.09-6.53.02-1.06.05-2.12.08-3.19.03-1.15.05-1.63 1.35-1.6 1.53.03 3.06.07 4.59.1.29 0 .63.04.78.29.09.14.09.32.08.48-.01.83-.03 1.65-.04 2.48 0 .27-.02.57-.2.77-.21.22-.55.24-.85.24h-2.65c-.3 0-.63.02-.83.24-.18.19-.19.48-.19.74 0 1.22 0 2.45-.01 3.67 0 .32.02.69.28.87.16.12.38.13.58.13l2.4.03c.39 0 .84.04 1.06.36.11.16.14.36.16.55.1.83.11 1.67.04 2.5-.02.19-.04.4-.17.55-.18.21-.5.23-.77.24-.83.01-1.66.02-2.49.04-.4 0-.87.05-1.07.4-.09.16-.1.34-.11.53-.08 1.76-.08 3.51-.01 5.27 0 .22.02.45.16.62.18.23.51.25.81.25l3.15.06c.3 0 .64.03.83.26.15.19.15.45.15.68l-.03 2.5c0 .24-.02.5-.19.66-.16.15-.4.15-.62.15l-5.09-.06c-.23 0-.47 0-.67-.12-.41-.23-.47-.79-.48-1.26-.09-3.94-.13-7.88-.12-11.81Z" fill="#374a6d" data-color="2"/>
        <path d="M64.92 102.71c.66-.16 1.45.01 2.24.03.15 0 .3.03.44.05.34.05.64.34.68.69.13 1.04.12 2.07 0 3.11-.03.22-.29.47-.51.47-1.04 0-2.08 0-3.12.01-.3 0-.59 0-.89.01a.65.65 0 0 0-.6.56c-.03.2-.05.39-.06.59-.02 1.09-.03 2.18-.04 3.27 0 .15.02.3.03.44.04.35.34.66.67.69.15.01.3.02.44.02.64 0 1.29.01 1.93.03.3 0 .59.03.89.06.33.03.59.26.6.55.04.99.06 1.98.08 2.97 0 .28-.27.59-.55.61-.93.07-1.85.35-2.8.21-.24-.03-.49 0-.73.06-.2.04-.35.19-.41.39-.05.19-.11.39-.1.58 0 1.54.02 3.07.04 4.61 0 .29.09.59.14.88.03.14.28.37.42.38.3.02.59.03.89.03.94.02 1.88.03 2.82.07.53.02.88.32.89.81.01.89 0 1.78-.02 2.67-.01.37-.29.67-.65.7-.74.06-1.48.12-2.22.14-.99.02-1.98 0-2.97-.02-.15 0-.29-.04-.44-.07-.33-.07-.64-.39-.66-.72-.03-.74-.07-1.48-.07-2.23 0-3.77-.01-7.53.01-11.3.02-3.22.08-6.44.13-9.66 0-.44.07-.89.14-1.32.03-.2.21-.36.41-.38.34-.04.69-.04 1.04-.04.59 0 1.19.02 1.92.03Z" fill="#374a6d" data-color="2"/>
        <path d="m89.13 125.34.28 2.01c.04.26.07.54-.02.78-.22.55-1.02.65-1.51.32s-.7-.94-.8-1.52c-.19-1.14-.05-2.32-.37-3.43-.07-.26-.19-.53-.42-.68-.2-.13-.46-.13-.7-.13h-1.82c-.19 0-.39 0-.54.12-.18.14-.22.39-.25.62l-.36 3.09c-.07.62-.17 1.29-.6 1.73s-1.33.47-1.58-.11c-.1-.23-.07-.5-.03-.75.63-4.7 1.28-9.4 1.95-14.1l1.02-7.16c.08-.56.4-5.02 2.15-3.27.46.4.58 1.07.66 1.68.22 1.54.43 3.07.65 4.61.76 5.39 1.52 10.79 2.27 16.18Zm-4.83-6.99s.09.03.14.03c.28.04.56 0 .83-.06.26-.05.55-.12.68-.36.09-.16.07-.36.04-.54-.14-1.18-.29-2.35-.43-3.53-.14-1.16-.29-2.32-.44-3.48-.02-.14-.09-.24-.23-.27-.63.71-.63 2.56-.76 3.51-.18 1.25-.3 2.51-.37 3.77 0 .17-.02.34.04.49.08.22.28.36.51.43Z" fill="#374a6d" data-color="2"/>
        <path d="M51.23 126.97c0-.1.02-.2.03-.3.69-5 1.4-10 2.13-14.99.37-2.53.65-5.1 1.13-7.61.39-2.06 2.5-1.69 2.5.39 1.03 7.28 2.05 14.56 3.08 21.84.06.44.12.89 0 1.32s-.49.81-.93.82c-.75 0-1.08-.93-1.19-1.67-.16-1.05-.31-2.1-.47-3.15-.04-.27-.09-.55-.27-.75-.22-.24-.57-.3-.9-.33-.54-.04-1.09-.02-1.63.06-.22.03-.46.08-.62.23-.17.17-.23.42-.27.66-.18.99-.33 1.98-.44 2.98-.06.49-.11 1.01-.39 1.42s-.84.68-1.28.45c-.46-.24-.52-.82-.48-1.36Zm3.29-10.6c-.04.43-.02.87.07 1.3.03.14.08.29.18.38.1.09.23.12.36.14.32.05.64.08.97.08.14 0 .29 0 .41-.08.24-.14.29-.46.3-.74.06-1.91-.48-3.79-.5-5.7 0-.3 0-.64-.2-.87-.9-1.1-.89 1.9-.93 2.18-.17 1.11-.58 2.21-.67 3.31Z" fill="#374a6d" data-color="2"/>
        <path d="M149.45 127.56c.04.35.05.71-.15.99-.37.5-1.22.36-1.61-.12s-.47-1.14-.52-1.76l-.21-2.33c-.04-.49-.14-1.06-.58-1.28-.21-.11-.46-.1-.7-.09-.57.02-1.14.04-1.71.05-.18 0-.37.01-.52.11-.19.13-.27.37-.33.59-.21.8-.34 1.62-.38 2.45-.02.51-.01 1.03-.15 1.52s-.46.96-.94 1.13-1.11-.1-1.21-.6c-.03-.17 0-.34.02-.51.71-4.74 1.39-9.48 2.05-14.23l.99-7.19c.11-.8-.01-2.43.67-2.93.36-.26 1.84-.29 1.84.42.14.25.19.54.24.82.27 1.59.49 3.18.71 4.78.13.92.25 1.84.38 2.76l2.1 15.28c0 .05.01.1.02.15Zm-5.36-11.24c-.05.87-.07 1.56-.06 1.78 0 .13.01.27.08.39.16.31.59.34.94.34.31 0 .67-.04.86-.29.09-.12.13-.27.15-.41.23-1.33-.17-2.68-.32-4.02-.11-1-.09-2.04-.49-2.97-.06-.13-.14-.27-.27-.33-.44-.18-.75 3.27-.88 5.51Z" fill="#374a6d" data-color="2"/>
        <path d="M90.31 113.69c.02-1.8.05-5.26.08-8.73 0-.44.03-.89.07-1.33.03-.34.31-.6.69-.68.7-.16 1.34.29 1.34.99 0 1.98-.03 3.96-.05 5.94-.05 4.21-.11 8.41-.15 12.62 0 .35 0 .69.03 1.04.02.26.31.56.58.6.19.03.39.06.59.06.59 0 1.19-.05 1.78-.04.39 0 .79.05 1.18.11.2.03.34.2.41.39.03.09.07.19.07.29 0 .99-.02 1.98-.04 2.97 0 .1-.04.19-.07.29-.05.2-.32.45-.53.46-.44.02-.89.05-1.33.05-1.24-.01-2.47-.03-3.71-.06-.32 0-.57-.23-.63-.53-.03-.14-.08-.29-.09-.44-.04-.39-.08-.79-.09-1.18-.04-3.71-.07-7.42-.11-12.8Z" fill="#374a6d" data-color="2"/>
        <path fill="#f9ba48" d="M166.12 95.37a4.49 4.49 0 1 1-8.98 0 4.49 4.49 0 0 1 8.98 0z" data-color="1"/>
        <path fill="#f9ba48" d="M123.67 198.24a4.49 4.49 0 1 1-8.98 0 4.49 4.49 0 0 1 8.98 0z" data-color="1"/>
        <path fill="#f9ba48" d="M142.45 211.92a4.49 4.49 0 1 1-8.98 0 4.49 4.49 0 0 1 8.98 0z" data-color="1"/>
        <path fill="#f9ba48" d="M166.71 219.48a4.49 4.49 0 1 1-8.98 0 4.49 4.49 0 0 1 8.98 0z" data-color="1"/>
        <path fill="#f9ba48" d="M192.06 218.29a4.49 4.49 0 1 1-8.98 0 4.49 4.49 0 0 1 8.98 0z" data-color="1"/>
        <path fill="#f9ba48" d="M214.21 212.46a4.49 4.49 0 1 1-8.98 0 4.49 4.49 0 0 1 8.98 0z" data-color="1"/>
        <path fill="#f9ba48" d="M234.68 204.8a4.49 4.49 0 1 1-8.98 0 4.49 4.49 0 0 1 8.98 0z" data-color="1"/>
        <path fill="#f9ba48" d="M254.87 193.88a4.49 4.49 0 1 1-8.98 0 4.49 4.49 0 0 1 8.98 0z" data-color="1"/>
        <path fill="#f9ba48" d="M183.73 80.92a4.49 4.49 0 1 1-8.98 0 4.49 4.49 0 0 1 8.98 0z" data-color="1"/>
        <path fill="#f9ba48" d="M249.82 92.41a4.49 4.49 0 1 1-8.98 0 4.49 4.49 0 0 1 8.98 0z" data-color="1"/>
        <path fill="#f9ba48" d="M259.95 92.41a4.49 4.49 0 1 1-8.98 0 4.49 4.49 0 0 1 8.98 0z" data-color="1"/>
        <path fill="#f9ba48" d="M201.53 65.93a4.49 4.49 0 1 1-8.98 0 4.49 4.49 0 0 1 8.98 0z" data-color="1"/>
        <path fill="#f9ba48" d="M220.24 54.03a4.49 4.49 0 1 1-8.98 0 4.49 4.49 0 0 1 8.98 0z" data-color="1"/>
        <path fill="#f9ba48" d="M239.17 43.45a4.49 4.49 0 1 1-8.98 0 4.49 4.49 0 0 1 8.98 0z" data-color="1"/>
        <path fill="#f9ba48" d="M259.37 34.3a4.49 4.49 0 1 1-8.98 0 4.49 4.49 0 0 1 8.98 0z" data-color="1"/>
        <path fill="#f9ba48" d="M279.71 29.81a4.49 4.49 0 1 1-8.98 0 4.49 4.49 0 0 1 8.98 0z" data-color="1"/>
        <path fill="#f9ba48" d="M300.16 28.54a4.49 4.49 0 1 1-8.98 0 4.49 4.49 0 0 1 8.98 0z" data-color="1"/>
        <path fill="#f9ba48" d="M320.22 33.03a4.49 4.49 0 1 1-8.98 0 4.49 4.49 0 0 1 8.98 0z" data-color="1"/>
        <path fill="#f9ba48" d="M336.63 42a4.49 4.49 0 1 1-8.98 0 4.49 4.49 0 0 1 8.98 0z" data-color="1"/>
        <path fill="#f9ba48" d="M349.94 55.31a4.49 4.49 0 1 1-8.98 0 4.49 4.49 0 0 1 8.98 0z" data-color="1"/>
        <path fill="#f9ba48" d="M362.14 76.43a4.49 4.49 0 1 1-8.98 0 4.49 4.49 0 0 1 8.98 0z" data-color="1"/>
        <path fill="#f9ba48" d="M362.14 96.9a4.49 4.49 0 1 1-8.98 0 4.49 4.49 0 0 1 8.98 0z" data-color="1"/>
        <path d="M446.79 113.45c-.12 3.27-.01 6.54-.07 9.82-.06 3.47-.08 6.94-.17 10.41-.06 2.63.08 5.25.08 7.88 0 3.17 0 6.34.03 9.52.07 7.84-.11 15.67-.21 23.5-.03 2.28.03 4.56.05 6.85.03 3.22-24.86 1.6-28.82 1.58-10.91-.05-21.82-.11-32.73-.17-22.7-.12-45.43-.56-68.12-.26-1.44.02-2.88-.03-4.31-.04-4.02-.05-8.03-.09-12.05-.13-.54 0-1.09-.03-1.65.2-.11.17-.23.34-.35.51h-14.82c.27-.24.54-.49.81-.73-.76.69-5.54-.03-6.67-.04-2.63-.02-5.26-.03-7.89-.04l-15.17-.09c-10.11-.06-20.23-.11-30.34-.17-20.23-.11-40.45-.23-60.67-.34-22.89-.13-45.82.13-68.7-.38-2.72-.06-5.45-.03-8.18-.06-5.35-.05-10.71-.12-16.06-.17-1.44-.02-2.88.06-4.31.07-2.38.02-4.76.01-7.14.03-1.38 0-2.77.04-4.16.04-1.93 0-3.86 0-5.8-.03-4.51-.05-9.02-.1-13.54-.17-4-.07-8.01-.05-12.02-.09-.35 0-.74-.03-.99-.28-.24-.25-.25-.64-.25-.98.02-2.2.03-4.4.05-6.59 0-.32.02-.67.23-.91.25-.27.66-.28 1.03-.28 60.34.81 120.69.76 181.03 1.05 1.21 0 2.43.02 3.64.02l182.09.96c9.83.05 19.7.4 29.53.15 2.73-.07 5.46.03 8.18.05 2.63.03 5.26.05 7.88.07 1.13 0 1.3-.15 1.34-1.27.04-1.14.06-2.28.07-3.42.07-5.65.15-11.3.21-16.96.02-2.13.05-4.26-.02-6.39-.07-2.04-.06-4.07-.05-6.1 0-1.64-.09-3.28-.07-4.91.05-5.31.12-10.61.18-15.92.03-1.88.08-3.77.08-5.65 0-1.19-.11-2.38-.15-3.56-.04-1.38-.08-2.77-.07-4.16.03-4.16.06-8.33.11-12.49.01-1.14.06-2.28.09-3.42 0-.15.04-.29.07-.44.04-.21.28-.44.52-.46.29-.03.59-.06.89-.06 1.98.03 3.97.06 5.95.1 1.25.02 1.47.15 1.46 1.45-.07 4.37-.12 8.73-.17 13.09-.02 1.54 0 3.07.03 4.61.03 1.63.08 3.27.11 4.9 0 .1.02.2.01.3Z" fill="#374a6d" data-color="2"/>
        <path d="M226.89 168.42c-58.12-.29-116.24-.59-174.35-.88-3.11-.02-6.22-.03-9.33-.04-6.5 0-12.99 0-19.49-.16-.2 0-.4 0-.59-.07-.13-.04-.29-.16-.32-.28-.1-.38-.21-.78-.19-1.16.1-1.93-.06-3.87 0-5.8.01-.35.04-.69.08-1.04.03-.29.32-.53.62-.54h.74c3.57.03 7.14.07 10.71.09.94 0 1.88-.08 2.82-.08 3.37-.02 6.74-.05 10.11-.02 59.85.49 119.71.7 179.57 1.01 59.91 0 119.83 1.11 179.74.87h3.39c3.47.03 6.94.08 10.41.11h.59c.55-.02.8-.28.82-.84.01-.2 0-.4.01-.59.06-4.36.13-8.73.17-13.09.01-1.19-.04-2.38-.05-3.57-.03-2.83-.08-5.65-.06-8.48 0-1.09.09-2.18-.05-3.27-.02-.15-.03-.3-.06-.44-.02-.13-.28-.36-.42-.38-.15-.02-.3-.05-.44-.05-2.53.03-5.05-.06-7.58.08-1.73.1-3.47 0-5.2-.01-.24 0-.49-.06-.73-.13a.716.716 0 0 1-.48-.53c-.06-.24-.07-.49-.07-.74v-2.83c.11-8.7-.02-17.44-.09-26.16-.02-2.18 0-4.49 1.08-6.38.96-1.68 2.68-2.84 4.52-3.46 4.39-1.47 9.72-.76 14.28-.74 1.19 0 2.38.03 3.57.05.3 0 .59.24.64.52.05.24.09.49.1.73.15 2.48.26 4.95.23 7.43-.09 7.19-.2 14.38-.3 21.57-.03 1.93.01 3.87.03 5.8.02 3.77-.01 7.54-.02 11.31 0 2.13.02 4.26.01 6.4-.02 4.02-.05 8.03-.09 12.05-.04 3.57-.11 7.14-.15 10.71-.01.99.02 1.98.03 2.97 0 .2-.02.39-.04.59-.03.21-.29.49-.48.51-.3.02-.59.05-.89.04-1.93-.02-3.87-.05-5.8-.08-3.32-.05-6.64-.14-9.97-.15-59.75-.19-119.52-.53-179.28-.83l-7.79-.04Zm189.44-57.34c-.02 3.28-.01 6.56.02 9.84 0 .23.02.5.19.66.16.15.4.16.62.16l4.37.03c.24 0 .51 0 .68-.17.19-.17.21-.46.21-.72.15-7.66.15-15.33 0-22.99 0-.23-.02-.49-.17-.67-.13-.15-.34-.22-.53-.26-1.67-.37-3.72.31-4.73 1.73-1.13 1.59-.58 4.63-.6 6.55s-.04 3.89-.05 5.83Z" fill="#374a6d" data-color="2"/>
        <path d="M159.42 145.43c2.53.01 5.05.02 7.58.04l18.15.18c2.83.03 5.65.1 8.48.11 2.28.01 4.56-.04 6.84-.05 2.23-.02 4.46-.03 6.69-.04 1.93 0 3.87-.02 5.8 0 1.78 0 3.57.03 5.35.05 4.96.07 9.92.16 14.87.22 2.03.03 4.06 0 6.1 0h7.88c1.88 0 3.77-.02 5.65 0 6.79.06 13.59.13 20.38.2 3.47.03 6.94.05 10.41.1 1.78.03 3.57 0 5.35-.05 1.58-.05 3.17.03 4.76.06.2 0 .4.04.59.02 1.63-.18 3.27-.05 4.9-.07 1.73-.02 3.47-.01 5.2 0 4.12.04 8.23.09 12.35.14.2 0 .4 0 .59-.03.25-.03.58-.32.63-.57.04-.24.09-.49.09-.74v-5.5c0-1.69-.03-3.37-.03-5.06 0-3.27 0-6.54.02-9.82.01-2.73.05-5.45.07-8.18 0-.15.01-.3.02-.45.07-.91.27-1.11 1.2-1.1 2.23.03 4.46.06 6.69.1.19 0 .4.03.58.1.12.05.24.17.3.3.07.12.09.28.09.43.1 3.32.25 6.64.26 9.96.03 6.49-.02 12.99-.18 19.48-.01.59-.01 1.19 0 1.79 0 .34.23.58.54.58 1.29 0 2.58 0 3.87-.02.24 0 .48-.23.51-.46.01-.15.03-.29.03-.44.1-6.05.21-12.1.28-18.15.02-1.88-.06-3.77-.07-5.65-.01-2.03 0-4.07 0-6.1 0-.1 0-.2.01-.3.08-1.3.2-1.42 1.52-1.41 2.08.03 4.17.05 6.25.1 1.13.02 1.28.18 1.32 1.3.04 1.29.08 2.58.06 3.87-.06 4.36-.15 8.73-.22 13.09-.04 2.28-.07 4.56-.08 6.84 0 1.19.05 2.38.06 3.57v2.53c0 .25.01.49.04.74.03.28.32.56.58.6.1.01.2.04.29.04 1.04.02 2.08.04 3.12.04.5 0 .75-.23.8-.69.05-.44.1-.89.1-1.33-.08-5.8.08-11.6.15-17.4.03-2.43.09-4.86.12-7.29.02-1.49.02-2.98.03-4.46 0-.3.03-.59.07-.89.04-.3.32-.55.6-.58.05 0 .1-.01.15 0 2.13.04 4.26-.11 6.39 0 .44.02.89.08 1.32.15.2.03.36.19.39.4.04.34.08.69.08 1.03-.01 2.03-.03 4.07-.06 6.1-.06 3.82-.13 7.64-.18 11.45 0 .64.03 1.29.04 1.93 0 .15.04.3.02.44-.1 1.14-.03 2.28-.02 3.42.03 2.33.01 4.66.01 6.99v.15c.02.4.25.67.63.69.45.03.89.04 1.34.04 3.52 0 7.04-.02 10.56-.03.55 0 1.09.03 1.64.01.44-.01.89-.06 1.33-.11.31-.04.5-.28.53-.62.02-.25.03-.49.03-.74.12-10.07-.06-20.14.08-30.21 0-.29.02-.61.24-.81.2-.18.49-.19.75-.19 1.83 0 3.66.03 5.49.07.59.01 1.19.03 1.78.06.35.02.63.18.67.66.07.79.12 1.58.14 2.37.02.69-.02 1.39.08 2.08.04.29.03.59.03.89-.03 3.72-.04 7.44-.09 11.16-.07 5.5-.19 11.01-.26 16.51-.02 1.63.07 3.27.09 4.9 0 .49-.02.99-.08 1.48-.05.44-.36.72-.8.74-.35.02-.69.02-1.04.02-2.73-.02-5.45-.04-8.18-.08-3.02-.05-6.05-.12-9.07-.17-5.4-.08-10.81-.15-16.21-.22-.99-.01-1.99-.1-2.97-.04-1.44.09-2.87.05-4.31.03-1.69-.01-3.37-.07-5.06-.08-29.85-.2-59.79-.35-89.68-.7-10.27-.12-20.54-.18-30.78-.16-1.49 0-2.97.01-4.46.01-.74 0-1.49-.03-2.23-.03-3.62-.02-7.24-.02-10.86-.06-4.56-.05-9.12-.14-13.68-.19-2.68-.03-5.35-.03-8.03-.04-1.19 0-2.38-.02-3.57-.02-1.98 0-3.96.03-5.95.03-.79 0-1.59-.03-2.38-.03-4.02 0-8.03.02-12.05 0-2.98-.01-5.95-.06-8.93-.09-3.92-.05-7.83-.12-11.75-.16-1.64-.02-3.27.04-4.91 0-1.79-.04-3.57.04-5.35.1-1.63.06-3.27-.03-4.91-.04-4.76-.04-9.52-.06-14.28-.11-2.33-.02-4.66-.1-6.99-.11-3.37-.03-6.74-.03-10.11-.04-2.43 0-4.86-.04-7.29-.01-2.03.03-4.06-.02-6.1.04-1.73.06-3.47 0-5.21-.03-3.32-.04-6.64-.09-9.97-.13-4.31-.06-8.63-.11-12.94-.16-1.24-.01-2.48.02-3.72.03-3.22.02-6.45.06-9.67.07-1.04 0-2.08-.05-3.12-.08-.19 0-.4-.06-.57-.13-.28-.13-.5-.35-.52-.67-.04-.64-.07-1.29-.07-1.93 0-1.69.02-3.37.04-5.06 0-.15.02-.3.05-.44.06-.26.22-.46.47-.52.28-.07.58-.12.87-.13 1.93-.02 3.87-.02 5.8-.02 9.32.01 18.64.09 27.96.23 3.07.04 6.15-.04 9.22-.05h4.31c1.19 0 2.38-.02 3.57-.01 1.98 0 3.96.02 5.94.03 1.73 0 3.47.01 5.2.03 4.76.05 9.52.13 14.28.17 2.63.02 5.25-.03 7.88-.03 1.44 0 2.87.03 4.31.03 3.02 0 6.05-.01 9.07.01 5.95.05 11.9.12 17.85.2 2.83.03 5.65.09 8.48.12.79 0 1.58-.05 2.37-.07.45-.01.89-.01 1.34-.02 2.63 0 5.25 0 7.88-.01v-.04Z" fill="#374a6d" data-color="2"/>
        <path d="M365.98 113.67c-1.24-.02-2.48-.04-3.72-.07-.25 0-.49-.04-.74-.08-.16-.02-.37-.23-.4-.39-.12-.59-.12-1.18.02-1.77.05-.2.2-.35.4-.4.19-.05.39-.07.59-.07.59 0 1.19.03 1.78.02.54-.01 1.09-.06 1.63-.1.12 0 .3-.19.29-.29-.02-.09-.03-.22-.09-.27-.7-.55-1.36-1.17-2.13-1.61-.78-.45-1.39-1.12-2.16-1.56-.15-.08-.22-.32-.3-.49a.71.71 0 0 1-.05-.29c.03-.64.04-1.29.1-1.93.04-.45.35-.62.72-.57.45.06.89.04 1.33.04 1.98-.02 3.97-.02 5.95 0 .44 0 .89.06 1.33.12.3.04.53.3.56.61.06.69.08 1.38-.04 2.07-.03.16-.25.36-.42.37l-.74.03c-1.14 0-2.28 0-3.42.03-.07 0-.16.11-.19.18-.03.08-.03.2.02.28.07.12.17.25.29.33 1.11.74 2.21 1.51 3.27 2.32.23.18.51.31.76.46.23.14.38.33.38.6 0 .64-.02 1.29-.05 1.93-.01.22-.28.46-.5.48-.25.03-.49.05-.74.05-1.24-.01-2.48-.04-3.72-.06v.04Z" fill="#374a6d" data-color="2"/>
        <path fill="#374a6d" d="M397.72 88.8v67.51h-8.94V88.8h8.94z" data-color="2"/>
    </g>
</svg>
